<?xml version="1.0" encoding="UTF-8" standalone="no"?>
<!-- Created with Inkscape (http://www.inkscape.org/) -->

<svg
   xmlns:dc="http://purl.org/dc/elements/1.1/"
   xmlns:cc="http://creativecommons.org/ns#"
   xmlns:rdf="http://www.w3.org/1999/02/22-rdf-syntax-ns#"
   xmlns:svg="http://www.w3.org/2000/svg"
   xmlns="http://www.w3.org/2000/svg"
   xmlns:sodipodi="http://sodipodi.sourceforge.net/DTD/sodipodi-0.dtd"
   xmlns:inkscape="http://www.inkscape.org/namespaces/inkscape"
   version="1.1"
   id="svg2"
   xml:space="preserve"
   width="1186.2668"
   height="877.70367"
   viewBox="0 0 1186.2668 877.70363"
   sodipodi:docname="1.svg"
   inkscape:version="0.92.4 (unknown)"><metadata
     id="metadata8"><rdf:RDF><cc:Work
         rdf:about=""><dc:format>image/svg+xml</dc:format><dc:type
           rdf:resource="http://purl.org/dc/dcmitype/StillImage" /><dc:title></dc:title></cc:Work></rdf:RDF></metadata><defs
     id="defs6" /><sodipodi:namedview
     pagecolor="#ffffff"
     bordercolor="#666666"
     borderopacity="1"
     objecttolerance="10"
     gridtolerance="10"
     guidetolerance="10"
     inkscape:pageopacity="0"
     inkscape:pageshadow="2"
     inkscape:window-width="1366"
     inkscape:window-height="701"
     id="namedview4"
     showgrid="false"
     inkscape:zoom="0.31289473"
     inkscape:cx="735.77948"
     inkscape:cy="358.20466"
     inkscape:window-x="0"
     inkscape:window-y="24"
     inkscape:window-maximized="1"
     inkscape:current-layer="g10" /><g
     id="g10"
     inkscape:groupmode="layer"
     inkscape:label="ink_ext_XXXXXX"
     transform="matrix(1.3333333,0,0,-1.3333333,-131.0668,962.25731)"><path
       inkscape:connector-curvature="0"
       id="path16"
       style="fill:#f7f7f7;fill-opacity:1;fill-rule:nonzero;stroke:none;stroke-width:0.1"
       d="m 506.473,165.086 c -26.055,-0.081 -52.11,-0.732 -78.118,-3.74 -9.807,-1.135 -19.408,-3.63 -29.236,-4.636 -19.633,-2.011 -38.914,-5.761 -58.617,-7.49 -15.866,-1.394 -31.798,-2.215 -47.619,-3.983 -14.831,-1.657 -31.252,-1.274 -45.969,1.463 -10.896,2.027 -21.842,3.167 -32.555,6.423 -11.984,3.642 -25.003,6.244 -37.489,6.15 -17.805,-0.132 -35.145,-0.148 -52.184,-6.578 -5.981,-2.257 -13.304,-5.967 -17.846,-10.704 -10.3974,-10.843 -11.8052,-37.898 -1.423,-49.1441 17.486,-18.927 54.808,-26.3539 79.319,-26.7039 26.859,-0.384 52.951,1.689 79.849,2.9082 24.995,1.1328 49.927,2.7449 74.962,2.6879 51.133,-0.1161 102.273,0 153.314,3.5519 47.953,3.3379 96.028,2.191 144.087,2.191 49.282,0 98.231,-0.4019 147.158,-7.2129 21.318,-2.9679 43.036,-4.007 64.461,-6.0859 19.188,-1.8633 37.627,0.0359 56.739,1.7566 16.048,1.4461 31.99,5.7321 46.569,12.9782 11.541,5.7351 32.115,23.554 35.654,37.244 9.921,38.382 -139.828,37.459 -162.82,37.373 -25.721,-0.097 -51.646,-0.976 -77.347,0.043 -10.811,0.43 -21.463,2.627 -32.014,5.034 -10.51,2.399 -21.099,1.789 -31.757,2.797 -44.445,4.203 -88.989,3.59 -133.576,3.59 -14.509,0 -29.025,0.132 -43.542,0.087" /><path
       inkscape:connector-curvature="0"
       id="path18"
       style="fill:#587bc9;fill-opacity:1;fill-rule:nonzero;stroke:none;stroke-width:0.1"
       d="m 412.409,575.586 c -28.828,-2.484 -54.211,18.871 -56.696,47.698 -2.484,28.827 18.871,54.211 47.699,56.695 28.827,2.485 54.211,-18.871 56.695,-47.698 2.485,-28.827 -18.871,-54.211 -47.698,-56.695 z m 76.553,67.28 7.218,4.528 c -1.259,5.654 -3.07,11.191 -5.42,16.547 l -8.472,-0.591 c -9.625,-0.673 -16.241,9.494 -11.726,18.021 l 3.974,7.506 c -3.944,4.319 -8.274,8.219 -12.932,11.66 l -7.064,-4.765 c -7.999,-5.394 -18.812,0.103 -19.166,9.746 l -0.311,8.476 c -2.759,0.865 -5.573,1.604 -8.438,2.21 -2.864,0.607 -5.736,1.071 -8.609,1.398 l -3.719,-7.623 c -4.23,-8.672 -16.342,-9.318 -21.47,-1.144 l -4.528,7.218 c -5.653,-1.259 -11.191,-3.069 -16.547,-5.421 l 0.592,-8.472 c 0.673,-9.625 -9.495,-16.24 -18.022,-11.725 l -7.506,3.973 c -4.319,-3.944 -8.218,-8.273 -11.66,-12.932 l 4.764,-7.064 c 5.395,-7.999 -0.102,-18.812 -9.745,-19.166 l -8.476,-0.31 c -0.864,-2.759 -1.604,-5.574 -2.21,-8.438 -0.606,-2.864 -1.07,-5.737 -1.398,-8.609 l 7.623,-3.719 c 8.673,-4.231 9.318,-16.343 1.144,-21.471 l -7.217,-4.527 c 1.258,-5.654 3.069,-11.192 5.42,-16.548 l 8.472,0.592 c 9.625,0.673 16.24,-9.494 11.726,-18.022 l -3.974,-7.506 c 3.944,-4.319 8.273,-8.218 12.932,-11.66 l 7.064,4.765 c 7.999,5.394 18.812,-0.103 19.166,-9.745 l 0.311,-8.477 c 2.759,-0.864 5.573,-1.603 8.437,-2.21 2.865,-0.606 5.737,-1.07 8.609,-1.398 l 3.719,7.624 c 4.23,8.672 16.343,9.317 21.471,1.143 l 4.527,-7.217 c 5.654,1.258 11.192,3.069 16.548,5.421 l -0.592,8.471 c -0.673,9.625 9.495,16.241 18.022,11.726 l 7.505,-3.974 c 4.32,3.945 8.219,8.274 11.661,12.933 l -4.765,7.063 c -5.395,7.999 0.103,18.813 9.745,19.166 l 8.477,0.311 c 0.863,2.76 1.603,5.573 2.21,8.437 0.606,2.865 1.07,5.738 1.398,8.61 l -7.624,3.719 c -8.672,4.23 -9.317,16.342 -1.144,21.47" /><path
       inkscape:connector-curvature="0"
       id="path20"
       style="fill:#3b455a;fill-opacity:1;fill-rule:nonzero;stroke:none;stroke-width:0.1"
       d="m 412.409,575.586 c -28.828,-2.484 -54.211,18.871 -56.696,47.698 -2.484,28.827 18.871,54.211 47.699,56.695 28.827,2.485 54.211,-18.871 56.695,-47.698 2.485,-28.827 -18.871,-54.211 -47.698,-56.695 z m -9.633,111.773 c -32.903,-2.835 -57.278,-31.807 -54.443,-64.711 2.836,-32.903 31.808,-57.278 64.712,-54.443 32.903,2.836 57.278,31.809 54.442,64.712 -2.835,32.903 -31.808,57.278 -64.711,54.442" /><path
       inkscape:connector-curvature="0"
       id="path22"
       style="fill:#3b455a;fill-opacity:1;fill-rule:nonzero;stroke:none;stroke-width:0.1"
       d="m 443.499,126.326 12.179,-8.628 4.06,-6.596 c 0,0 -4.568,-2.031 -7.105,-2.538 -2.537,-0.507 -22.329,2.538 -22.329,2.538 v 11.671 l 13.195,3.553" /><path
       inkscape:connector-curvature="0"
       id="path24"
       style="fill:#3b455a;fill-opacity:1;fill-rule:nonzero;stroke:none;stroke-width:0.1"
       d="m 401.675,120.743 6.597,-6.597 c 0,0 5.582,-9.134 3.045,-9.134 -2.537,0 -16.239,-1.523 -17.254,0 -1.015,1.522 -8.627,6.597 -9.642,7.612 -1.015,1.015 -0.546,9.914 -0.546,9.914 l 17.8,-1.795" /><path
       inkscape:connector-curvature="0"
       id="path26"
       style="fill:#15529b;fill-opacity:1;fill-rule:nonzero;stroke:none;stroke-width:0.1"
       d="m 425.019,298.869 -8.627,-86.779 -14.717,-91.347 h -17.762 l -2.03,95.406 c 0,0 -14.435,78.4 -15.957,104.282 l 59.093,-21.562" /><path
       inkscape:connector-curvature="0"
       id="path28"
       style="fill:#15529b;fill-opacity:1;fill-rule:nonzero;stroke:none;stroke-width:0.1"
       d="M 463.29,297.347 448.066,122.773 h -18.27 l -5.582,89.317 -10.487,79.076 39.921,46.778 9.642,-40.597" /><path
       inkscape:connector-curvature="0"
       id="path30"
       style="fill:#96bfee;fill-opacity:1;fill-rule:nonzero;stroke:none;stroke-width:0.1"
       d="m 466.904,378.371 c -2.855,10.107 -5.111,20.368 -7.043,30.682 -1.686,8.997 -2.35,18.681 -6.324,27.07 -3.974,8.39 -11.48,14.745 -17.275,21.878 -2.455,3.021 -5.074,6.167 -8.724,7.607 -2.501,0.988 -5.261,1.077 -7.955,1.153 -8.171,0.23 -16.343,0.462 -24.516,0.692 -2.979,0.084 -6.077,0.147 -8.793,-1.06 -4.07,-1.81 -6.37,-6.013 -8.381,-9.935 -5.137,-10.017 -6.084,-21.127 -6.543,-32.447 0.015,-0.107 2.357,-30.493 -2.959,-54.543 -5.29,-23.935 -3.417,-87.652 1.652,-84.985 6.312,3.323 13.534,5.088 20.616,6.324 9.986,1.795 20.18,2.935 30.358,3.216 l 17.914,-1.355 h 10.811 c 6.489,-0.706 5.956,-2.894 12.625,-2.439 4.266,0.291 7.199,78.715 4.537,88.142" /><path
       inkscape:connector-curvature="0"
       id="path32"
       style="fill:#cc937a;fill-opacity:1;fill-rule:nonzero;stroke:none;stroke-width:0.1"
       d="m 411.235,462.165 c -4.548,0.197 -9.096,0.396 -13.645,0.593 -0.244,3.622 -0.2,7.263 0.135,10.879 -3.844,1.116 -8.31,2.863 -9.186,6.768 -0.276,1.23 -0.132,2.511 0.014,3.763 0.601,5.177 1.203,10.353 1.804,15.53 0.208,1.79 0.434,3.634 1.313,5.207 1.545,2.76 4.765,4.11 7.846,4.822 7.864,1.819 16.612,0.579 23.057,-4.281 1.715,-1.293 3.289,-2.874 4.124,-4.853 1.286,-3.053 0.643,-6.533 -0.019,-9.779 -0.611,-2.995 -1.223,-5.991 -1.834,-8.986 -0.703,-3.445 -1.777,-7.377 -4.978,-8.832 -1.699,-0.772 -3.762,-0.688 -5.279,-1.776 -2.675,-1.918 -2.073,-6.021 -3.352,-9.055" /><path
       inkscape:connector-curvature="0"
       id="path34"
       style="fill:#34435a;fill-opacity:1;fill-rule:nonzero;stroke:none;stroke-width:0.1"
       d="m 436.433,527.955 c -1.01,0.18 -2.039,0.393 -3.083,0.847 -3.295,1.434 -5.604,4.31 -9.102,5.656 -7.077,2.723 -15.953,2.327 -22.904,-0.597 -6.652,-2.798 -15.731,-3.874 -21.684,-7.633 -2.487,-1.57 -4.41,-3.915 -5.869,-6.467 -5.054,-8.845 -4.432,-20.619 1.527,-28.881 1.337,-1.855 2.907,-3.529 4.547,-5.121 3.394,-3.295 7.462,-7.371 11.938,-8.413 -0.114,3.945 -4.392,16.171 -1.546,19.568 3.776,4.505 11.185,4.39 16.494,3.892 6.327,-0.592 11.535,1.439 17.844,1.123 3.214,-0.16 6.848,-0.807 9.312,1.262 2.849,2.393 8.871,9.991 10.3,13.326 1.25,2.919 0.416,6.514 -1.758,8.83 -1.876,1.999 -3.902,2.231 -6.016,2.608" /><path
       inkscape:connector-curvature="0"
       id="path36"
       style="fill:#96bfee;fill-opacity:1;fill-rule:nonzero;stroke:none;stroke-width:0.1"
       d="m 395.637,467.468 -43.753,12.18 5.857,66.03 -14.91,1.597 -17.04,-69.757 7.875,-16.353 38.985,-21.455 16.508,26.093 6.478,1.665" /><path
       inkscape:connector-curvature="0"
       id="path38"
       style="fill:#cc937a;fill-opacity:1;fill-rule:nonzero;stroke:none;stroke-width:0.1"
       d="m 344.176,547.132 -2.41,10.794 7.988,8.519 12.78,-14.91 -4.793,-5.857 -13.565,1.454" /><path
       inkscape:connector-curvature="0"
       id="path40"
       style="fill:#ffffff;fill-opacity:1;fill-rule:nonzero;stroke:none;stroke-width:0.1"
       d="m 440.056,372.237 c 0,1.41 -0.267,2.804 -0.805,4.106 -2.409,5.828 -27.749,78.827 -27.749,78.827 0,0 -1.022,3.777 -1.497,7.107 l -8.12,0.508 1.336,-8.293 3.805,-3.265 c 0,0 15.574,-80.389 15.666,-81.796 l 11.546,-14.28 5.818,17.086" /><path
       inkscape:connector-curvature="0"
       id="path42"
       style="fill:#cc937a;fill-opacity:1;fill-rule:nonzero;stroke:none;stroke-width:0.1"
       d="m 468.186,327.702 -9.287,-5.518 -3.072,-6.23 1.959,-1.308 3.546,2.535 -4.686,-12.562 4.67,-4.428 11.622,11.199 4.199,14.213 -8.951,2.099" /><path
       inkscape:connector-curvature="0"
       id="path44"
       style="fill:#96bfee;fill-opacity:1;fill-rule:nonzero;stroke:none;stroke-width:0.1"
       d="m 438.681,462.608 -11.182,3.195 40.422,-77.05 -4.631,-64.046 14.586,-4.314 14.585,72.723 -53.78,69.492" /><path
       inkscape:connector-curvature="0"
       id="path46"
       style="fill:#154e93;fill-opacity:1;fill-rule:nonzero;stroke:none;stroke-width:0.1"
       d="M 829.085,721.693 709.513,688.028 738.42,658.771 c -32.062,-32.602 -72.152,-73.538 -73.221,-75.471 -1.787,-3.236 -32.9,60.37 -32.9,60.37 l -84.001,-92.82 -30.668,40.569 -67.06,-74.936 62.608,42.649 33.828,-44.113 75.507,76.702 32.195,-65.801 112.25,103.97 31.07,-31.446 31.057,123.249" /><path
       inkscape:connector-curvature="0"
       id="path48"
       style="fill:#3b455a;fill-opacity:1;fill-rule:nonzero;stroke:none;stroke-width:0.1"
       d="m 655.889,525.741 114.28,102.427 -6.419,7.559 z" /><path
       inkscape:connector-curvature="0"
       id="path50"
       style="fill:#3b455a;fill-opacity:1;fill-rule:nonzero;stroke:none;stroke-width:0.1"
       d="m 548.286,515.468 79.268,68.861 -4.263,8.624 z" /><path
       inkscape:connector-curvature="0"
       id="path52"
       style="fill:#3b455a;fill-opacity:1;fill-rule:nonzero;stroke:none;stroke-width:0.1"
       d="m 514.634,559.591 -62.259,-42.934 65.93,37.471 z" /><path
       inkscape:connector-curvature="0"
       id="path54"
       style="fill:#305399;fill-opacity:1;fill-rule:nonzero;stroke:none;stroke-width:0.1"
       d="m 256.78,589.521 c 4.278,-14.308 -3.852,-29.375 -18.159,-33.654 -14.308,-4.278 -29.375,3.852 -33.654,18.16 -4.278,14.308 3.852,29.375 18.159,33.654 14.308,4.278 29.375,-3.853 33.654,-18.16 z m -35.477,51.734 -3.165,5.329 c -2.072,-0.41 -4.137,-0.92 -6.186,-1.533 -2.05,-0.614 -4.056,-1.321 -6.013,-2.114 l 0.281,-6.193 c 0.319,-7.043 -7.227,-11.694 -13.375,-8.244 l -5.43,3.047 c -3.187,-2.785 -6.107,-5.884 -8.721,-9.266 l 3.344,-5.228 c 3.798,-5.941 -0.412,-13.741 -7.461,-13.827 l -6.206,-0.077 c -1.392,-4.041 -2.379,-8.182 -2.957,-12.375 l 5.527,-2.866 c 6.26,-3.245 6.515,-12.105 0.452,-15.705 l -5.33,-3.165 c 0.411,-2.072 0.921,-4.136 1.534,-6.186 0.613,-2.05 1.32,-4.055 2.114,-6.012 l 6.192,0.28 c 7.044,0.319 11.695,-7.226 8.244,-13.375 l -3.046,-5.43 c 2.785,-3.187 5.883,-6.106 9.265,-8.72 l 5.229,3.342 c 5.94,3.799 13.741,-0.411 13.827,-7.46 l 0.076,-6.206 c 4.041,-1.392 8.183,-2.379 12.376,-2.958 l 2.865,5.528 c 3.245,6.26 12.106,6.514 15.705,0.452 l 3.165,-5.33 c 2.072,0.411 4.137,0.921 6.186,1.534 2.05,0.612 4.056,1.319 6.013,2.114 l -0.281,6.193 c -0.319,7.043 7.227,11.694 13.375,8.243 l 5.43,-3.047 c 3.187,2.785 6.107,5.885 8.721,9.267 l -3.344,5.228 c -3.798,5.94 0.412,13.74 7.461,13.827 l 6.206,0.075 c 1.392,4.042 2.379,8.184 2.957,12.376 l -5.527,2.867 c -6.26,3.245 -6.514,12.105 -0.452,15.705 l 5.33,3.164 c -0.411,2.072 -0.921,4.137 -1.534,6.186 -0.613,2.05 -1.32,4.056 -2.114,6.013 l -6.192,-0.28 c -7.044,-0.32 -11.695,7.226 -8.244,13.375 l 3.046,5.429 c -2.785,3.187 -5.883,6.107 -9.265,8.721 l -5.229,-3.344 c -5.94,-3.797 -13.741,0.412 -13.827,7.462 l -0.076,6.205 c -4.041,1.392 -8.183,2.379 -12.375,2.958 l -2.866,-5.528 c -3.245,-6.259 -12.106,-6.514 -15.705,-0.451" /><path
       inkscape:connector-curvature="0"
       id="path56"
       style="fill:#96bfee;fill-opacity:1;fill-rule:nonzero;stroke:none;stroke-width:0.1"
       d="m 223.306,604.354 c -12.451,-4.173 -19.185,-17.698 -15.012,-30.148 4.173,-12.45 17.697,-19.185 30.147,-15.012 12.451,4.173 19.185,17.697 15.012,30.148 -4.173,12.45 -17.697,19.184 -30.147,15.012 z m 16.996,-50.712 c -15.512,-5.2 -32.362,3.191 -37.56,18.704 -5.199,15.511 3.191,32.361 18.703,37.56 15.512,5.198 32.362,-3.192 37.56,-18.704 5.2,-15.512 -3.191,-32.361 -18.703,-37.56" /><path
       inkscape:connector-curvature="0"
       id="path58"
       style="fill:#eacfc1;fill-opacity:1;fill-rule:nonzero;stroke:none;stroke-width:0.1"
       d="m 494.911,518.719 -3.279,16.974 10.134,11.582 5.309,-4.826 -2.443,-12.004 2.63,-2.906 -2.862,-12.271 c 0,0 -9.522,3.682 -9.489,3.451" /><path
       inkscape:connector-curvature="0"
       id="path60"
       style="fill:#eacfc1;fill-opacity:1;fill-rule:nonzero;stroke:none;stroke-width:0.1"
       d="m 627.24,553.099 1.245,17.712 -14.325,11.09 -6.008,-7.856 6.47,-11.553 -2.311,-6.007 6.351,-9.539 8.578,6.153" /><path
       inkscape:connector-curvature="0"
       id="path62"
       style="fill:#305399;fill-opacity:1;fill-rule:nonzero;stroke:none;stroke-width:0.1"
       d="M 513.729,351.955 512.57,251.744 523.25,122.742 h 14.521 l 17.375,119.016 19.87,119.221 -61.287,-9.024" /><path
       inkscape:connector-curvature="0"
       id="path64"
       style="fill:#34435a;fill-opacity:1;fill-rule:nonzero;stroke:none;stroke-width:0.1"
       d="m 537.687,116.619 -15.703,-7.85 -7.851,7.85 7.851,7.852 h 15.703 v -7.852" /><path
       inkscape:connector-curvature="0"
       id="path66"
       style="fill:#305399;fill-opacity:1;fill-rule:nonzero;stroke:none;stroke-width:0.1"
       d="m 613.284,351.955 0.285,-57.976 -9.793,-171.237 h -14.521 l -24.29,113.633 -12.968,124.604 61.287,-9.024" /><path
       inkscape:connector-curvature="0"
       id="path68"
       style="fill:#34435a;fill-opacity:1;fill-rule:nonzero;stroke:none;stroke-width:0.1"
       d="m 589.339,116.619 15.702,-7.85 7.851,7.85 -7.851,7.852 h -15.702 v -7.852" /><path
       inkscape:connector-curvature="0"
       id="path70"
       style="fill:#305399;fill-opacity:1;fill-rule:nonzero;stroke:none;stroke-width:0.1"
       d="m 628.385,317.047 c 0.311,-9.199 0.111,-21.503 -3.762,-21.963 -0.725,-0.086 -1.424,0.235 -2.062,0.545 -6.735,3.271 -11.535,7.897 -18.175,11.058 -6.957,3.312 -14.865,5.045 -22.592,6.243 -11.526,1.841 -23.243,2.946 -34.843,3.049 -9.97,0.088 -20.338,-4.459 -29.763,-6.96 -3.628,-0.963 -6.58,-3.607 -9.594,-5.681 -4.451,-3.063 -6.404,-4.276 -5.796,1.982 0.991,10.211 2.019,20.42 3.275,30.603 2.506,20.308 5.916,40.569 11.687,60.229 2.205,7.511 4.748,14.917 7.29,22.321 3.096,9.015 6.192,18.031 9.288,27.046 3.848,11.205 10.341,19.098 21.712,23.017 9.827,3.388 22.033,4.315 31.591,-0.428 10.625,-5.27 15.677,-23.226 20.839,-32.822 4.523,-8.409 10.225,-31.344 11.918,-40.409 2.038,-10.91 3.92,-21.771 5.403,-32.602 1.641,-11.996 2.798,-23.956 3.133,-35.846 0.037,-1.315 0.302,-4.991 0.451,-9.382" /><path
       inkscape:connector-curvature="0"
       id="path72"
       style="fill:#ffffff;fill-opacity:1;fill-rule:nonzero;stroke:none;stroke-width:0.1"
       d="m 575.899,466.524 -19.623,-0.187 c 0,0 -21.056,-73.585 -21.829,-86.267 -0.759,-12.45 -6.082,-62.932 -6.082,-62.932 0,0 21.732,-0.513 46.771,-3.564 24.478,-5.238 26.535,-2.14 26.535,-2.14 0,0 -13.211,53.059 -13.649,68.303 -0.448,15.592 -2.444,67.09 -2.444,67.09 l -9.679,19.697" /><path
       inkscape:connector-curvature="0"
       id="path74"
       style="fill:#34435a;fill-opacity:1;fill-rule:nonzero;stroke:none;stroke-width:0.1"
       d="m 573.056,465.322 h -9.66 c -2.256,0 -3.534,-2.584 -2.166,-4.377 l 3.966,-5.197 -10.552,-97.334 12.987,-12.765 8.929,15.159 -2.435,94.94 1.571,6.179 c 0.438,1.721 -0.863,3.395 -2.64,3.395" /><path
       inkscape:connector-curvature="0"
       id="path76"
       style="fill:#eacfc1;fill-opacity:1;fill-rule:nonzero;stroke:none;stroke-width:0.1"
       d="m 564,466.143 c 0.23,-0.201 0.496,-0.359 0.802,-0.459 0.61,-0.201 1.271,-0.127 1.909,-0.052 2.596,0.306 5.191,0.614 7.787,0.921 -0.856,7.949 3.791,9.747 8.318,14.859 4.59,5.183 3.177,12.171 2.919,18.514 -0.073,1.765 -0.159,3.586 -0.906,5.188 -1.311,2.812 -4.363,4.365 -7.325,5.285 -7.561,2.35 -16.207,1.771 -22.864,-2.514 -1.772,-1.141 -3.426,-2.573 -4.386,-4.449 -1.48,-2.892 -1.104,-6.344 -0.691,-9.567 0.634,-4.953 2.1,-9.817 4.901,-13.991 2.609,-3.89 7.584,-5.752 8.156,-10.42 0.147,-1.206 0.512,-2.562 1.38,-3.315" /><path
       inkscape:connector-curvature="0"
       id="path78"
       style="fill:#3b455a;fill-opacity:1;fill-rule:nonzero;stroke:none;stroke-width:0.1"
       d="m 593.394,527.661 c -1.502,2.349 -3.332,4.456 -5.482,5.769 -5.151,3.141 -12.32,3.429 -17.869,5.584 -7.805,3.029 -11.772,0.298 -19.14,-2.07 -2.946,-0.945 -6.332,-1.766 -7.892,-4.557 -0.861,-1.541 -0.989,-3.444 -1.858,-4.98 -1.12,-1.979 -3.246,-3.012 -5.09,-4.258 -2.139,-1.444 -3.05,-3.583 -3.125,-5.976 -0.161,-5.113 3.702,-13.418 8.454,-15.502 0.923,-0.404 1.945,-0.643 3.025,-0.757 1.148,-3.184 3.185,-6.251 6.252,-7.293 0.485,1.987 -0.446,4.008 -0.887,6.006 -0.112,0.505 -0.133,1.025 -0.101,1.553 3.547,0.613 7.126,1.93 9.732,3.068 5.426,2.368 15.993,4.891 21.626,2.094 4.455,-2.212 3.087,-9.266 2.863,-13.727 -0.058,-1.146 -0.146,-2.314 0.118,-3.428 0.367,-1.549 1.541,-2.418 1.77,-3.995 3.648,1.638 5.854,5.751 7.915,9.095 1.03,1.672 1.994,3.419 2.752,5.317 3.389,8.485 2.14,19.923 -3.063,28.057" /><path
       inkscape:connector-curvature="0"
       id="path80"
       style="fill:#305399;fill-opacity:1;fill-rule:nonzero;stroke:none;stroke-width:0.1"
       d="m 550.233,466.872 -46.674,0.668 4.527,50.028 -15.041,5.47 -18.137,-60.306 8.51,-18.191 52.095,-15.23 14.72,37.561" /><path
       inkscape:connector-curvature="0"
       id="path82"
       style="fill:#305399;fill-opacity:1;fill-rule:nonzero;stroke:none;stroke-width:0.1"
       d="m 582.193,469.128 49.814,14.681 -18.438,62.278 15.194,10.897 36.677,-72.095 -10.143,-24.966 -47.594,-24.567 -25.51,33.772" /><path
       inkscape:connector-curvature="0"
       id="path84"
       style="fill:#3b455a;fill-opacity:1;fill-rule:nonzero;stroke:none;stroke-width:0.1"
       d="m 834.683,623.322 c 0,0 10.154,-1.826 11.754,3.105 1.599,4.93 6.365,5.62 6.365,5.62 l 29.781,0.767 -1.666,-4.68 -36.133,-37.417 c -0.524,-0.542 -0.731,-1.315 -0.55,-2.047 l 3.493,-14.085 c 0.199,-0.799 0.827,-1.419 1.63,-1.605 2.408,-0.556 7.934,-1.829 14.792,-3.368 l 33.28,-7.114 c 8.879,-1.743 15.608,-2.838 16.383,-2.331 0.67,0.44 1.932,4.448 3.2,10.792 l 11.896,0.65 c 3.791,0.248 4.754,41.301 4.568,45.078 -0.921,18.681 -8.422,35.924 -20.631,49.247 -5.639,6.154 -12.283,11.471 -19.746,15.708 -0.995,0.564 -7.689,2.294 -7.918,2.747 l -8.969,17.645 c -0.47,0.925 -1.907,0.92 -2.097,-0.008 l -3.616,-17.679 c -15.583,-1.371 -26.923,-6.378 -26.923,-6.378 0,0 0.716,-2.712 2.387,-9.041 1.672,-6.329 -19.085,-30.279 -19.085,-30.279 l 7.805,-15.327" /><path
       inkscape:connector-curvature="0"
       id="path86"
       style="fill:#323a4c;fill-opacity:1;fill-rule:nonzero;stroke:none;stroke-width:0.1"
       d="m 917.012,570.959 c 0.793,0.043 1.579,19.891 1.644,21.897 0.243,7.524 0.066,15.076 -0.865,22.55 -1.902,15.284 -6.871,30.586 -17.335,42.165 -7.255,8.028 -16.836,15.652 -27.883,17.429 8.294,-1.335 16.808,-3.875 24.244,-7.789 13.264,-6.98 20.387,-21.995 24.831,-35.627 4.145,-12.719 5.883,-26.221 5.082,-39.574 -0.091,-1.514 -0.912,-20.433 -1.942,-20.625 l -7.776,-0.426" /><path
       inkscape:connector-curvature="0"
       id="path88"
       style="fill:#3b455a;fill-opacity:1;fill-rule:nonzero;stroke:none;stroke-width:0.1"
       d="m 900.944,545.741 3.55,20.671 -46.293,7.951 -3.55,-20.671 -19.677,-15.18 -2.353,-13.7 79.454,-13.646 2.353,13.699 -13.484,20.876" /><path
       inkscape:connector-curvature="0"
       id="path90"
       style="fill:#eacfc1;fill-opacity:1;fill-rule:nonzero;stroke:none;stroke-width:0.1"
       d="m 909.461,548.45 2.17,18.446 -20.042,8.561 -3.728,-8.52 9.439,-13.87 2.286,-8.439 9.875,3.822" /><path
       inkscape:connector-curvature="0"
       id="path92"
       style="fill:#587bc9;fill-opacity:1;fill-rule:nonzero;stroke:none;stroke-width:0.1"
       d="m 818.015,437.048 -24.26,-37.24 -15.793,-30.162 5.778,-11.693 21.008,5.876 13.267,73.219" /><path
       inkscape:connector-curvature="0"
       id="path94"
       style="fill:#587bc9;fill-opacity:1;fill-rule:nonzero;stroke:none;stroke-width:0.1"
       d="m 847.083,305.534 v -18.857 l -25.143,-81.714 6.286,-84.857 -15.714,-3.142 -25.143,103.713 0.962,30.514 11.609,62.234 47.143,-7.891" /><path
       inkscape:connector-curvature="0"
       id="path96"
       style="fill:#242449;fill-opacity:1;fill-rule:nonzero;stroke:none;stroke-width:0.1"
       d="m 814.575,118.575 -11.995,-12.695 3.465,-6.4359 24.752,11.8809 -4.559,9.405 -11.663,-2.155" /><path
       inkscape:connector-curvature="0"
       id="path98"
       style="fill:#242449;fill-opacity:1;fill-rule:nonzero;stroke:none;stroke-width:0.1"
       d="m 852.615,112.777 -14.787,-9.296 1.747,-7.0958 26.935,5.3188 -2.064,10.247 -11.831,0.826" /><path
       inkscape:connector-curvature="0"
       id="path100"
       style="fill:#587bc9;fill-opacity:1;fill-rule:nonzero;stroke:none;stroke-width:0.1"
       d="m 817.934,437.144 37.405,14.837 c 0,0 13.294,-33.018 28.406,-85.911 15.112,-52.892 -7.017,-120.22 -7.017,-120.22 0,0 -85.693,20.365 -102.805,23.723 l 21.464,96.683 22.547,70.888" /><path
       inkscape:connector-curvature="0"
       id="path102"
       style="fill:#587bc9;fill-opacity:1;fill-rule:nonzero;stroke:none;stroke-width:0.1"
       d="m 827.138,283.206 25.264,-172.855 h 11.483 l 7.253,94.285 15.714,94.285 -59.714,-15.715" /><path
       inkscape:connector-curvature="0"
       id="path104"
       style="fill:#eacfc1;fill-opacity:1;fill-rule:nonzero;stroke:none;stroke-width:0.1"
       d="m 816.696,487.677 c 10.184,-0.749 19.707,7.615 29.731,5.539 6.518,-1.351 11.663,-7.131 13.652,-13.647 0.927,-3.036 1.256,-6.345 0.349,-9.366 -0.589,-1.959 -1.675,-3.725 -2.954,-5.295 -1.709,-2.098 -3.8,-3.842 -6.12,-5.18 1.274,-2.055 2.735,-3.995 4.359,-5.786 -4.696,-1.797 -9.394,-3.596 -14.091,-5.395 -1.038,2.699 -2.076,5.397 -3.114,8.097 -1.412,0.078 -2.82,0.279 -4.198,0.637 -8.34,2.163 -15.254,9.467 -17.114,18.078 -0.871,4.034 -0.703,8.205 -0.5,12.318" /><path
       inkscape:connector-curvature="0"
       id="path106"
       style="fill:#34435a;fill-opacity:1;fill-rule:nonzero;stroke:none;stroke-width:0.1"
       d="m 819.267,484.604 31.492,3.743 6.112,-24.056 8.893,7.058 -4.582,39.361 -44.444,0.957 -19.244,-11.289 0.815,-11.314 17.207,-11.582 3.751,7.122" /><path
       inkscape:connector-curvature="0"
       id="path108"
       style="fill:#ffffff;fill-opacity:1;fill-rule:nonzero;stroke:none;stroke-width:0.1"
       d="m 831.491,444.144 37.405,14.837 c 0,0 13.294,-33.018 28.406,-85.911 15.112,-52.892 -7.017,-120.22 -7.017,-120.22 0,0 -76.656,37.877 -93.767,41.234 l 12.425,79.172 22.548,70.888" /><path
       inkscape:connector-curvature="0"
       id="path110"
       style="fill:#587bc9;fill-opacity:1;fill-rule:nonzero;stroke:none;stroke-width:0.1"
       d="m 897.867,373.979 c -15.113,52.892 -28.2,85.966 -28.2,85.966 l -37.611,-14.894 -0.061,-0.191 c 0.829,-2.161 1.694,-4.31 2.445,-6.501 2.962,-8.647 5.152,-17.547 6.498,-26.589 2.364,-15.894 2.612,-32.234 2.104,-48.272 -0.487,-15.388 -2.074,-30.747 -4.808,-45.9 -3.614,-20.032 -9.377,-39.55 -16.803,-58.443 34.791,-7.069 75.736,-15.427 75.736,-15.427 0,0 15.812,77.358 0.7,130.251" /><path
       inkscape:connector-curvature="0"
       id="path112"
       style="fill:#587bc9;fill-opacity:1;fill-rule:nonzero;stroke:none;stroke-width:0.1"
       d="m 866.51,458.695 37.238,23.083 -6.923,63.368 16.508,6.389 27.157,-72.42 -5.325,-11.715 -51.041,-49.255 -17.614,40.55" /><path
       inkscape:connector-curvature="0"
       id="path114"
       style="fill:#587bc9;fill-opacity:1;fill-rule:nonzero;stroke:none;stroke-width:0.1"
       d="m 797.78,388.591 3.727,44.197 h -18.105 l -13.844,-60.705 9.585,-18.638 15.413,7.534 3.224,27.612" /><path
       inkscape:connector-curvature="0"
       id="path116"
       style="fill:#eacfc1;fill-opacity:1;fill-rule:nonzero;stroke:none;stroke-width:0.1"
       d="m 785.532,432.788 v 14.91 l 11.183,4.26 10.118,-7.987 v -6.923 l -7.456,-4.26 h -13.845" /><path
       inkscape:connector-curvature="0"
       id="path118"
       style="fill:#eacfc1;fill-opacity:1;fill-rule:nonzero;stroke:none;stroke-width:0.1"
       d="m 179.679,511.981 2.152,18.036 14.107,8.138 4.074,-9.714 -6.736,-11.053 v -9.053 l -13.597,3.646" /><path
       inkscape:connector-curvature="0"
       id="path120"
       style="fill:#34435a;fill-opacity:1;fill-rule:nonzero;stroke:none;stroke-width:0.1"
       d="m 286.412,109.829 -12.622,11.659 c -3.663,1.853 -7.537,3.148 -10.676,3.108 -2.28,-0.03 -4.172,-0.761 -5.313,-2.491 -1.096,-1.662 -1.318,-3.849 -0.572,-5.622 0.273,-0.648 0.661,-1.228 1.097,-1.775 v 0 l 0.006,-0.007 c 0.376,-0.471 0.787,-0.917 1.196,-1.356 0.261,-0.281 0.548,-0.581 0.854,-0.895 2.612,-2.831 6.989,-7.442 8.726,-8.484 2.549,-1.529 8.156,-5.6082 14.782,-1.02 l -0.077,0.065 c 2.41,1.631 3.119,4.311 2.599,6.818" /><path
       inkscape:connector-curvature="0"
       id="path122"
       style="fill:#eacfc1;fill-opacity:1;fill-rule:nonzero;stroke:none;stroke-width:0.1"
       d="m 276.504,211.367 -1.019,-14.632 -5.001,-71.23 5.001,-8.286 c 0,0 1.019,-6.627 -6.627,-6.117 -2.274,0.151 -10.33,10.393 -10.33,10.393 l 1.165,4.693 -5.669,53.485 0.052,15.534 -2.711,17.248 25.139,-1.088" /><path
       inkscape:connector-curvature="0"
       id="path124"
       style="fill:#34435a;fill-opacity:1;fill-rule:nonzero;stroke:none;stroke-width:0.1"
       d="m 196.487,127.917 c -2.35,0.738 -4.539,0.625 -6.293,-0.766 -1.685,-1.337 -2.651,-3.506 -2.482,-5.579 0.115,-1.412 0.712,-2.719 1.301,-3.996 3.048,-6.606 11.598,-21.5451 21.406,-18.8061 4.123,1.1512 5.683,5.3581 4.846,9.0761 -1.26,5.6 -10.921,17.599 -18.778,20.071" /><path
       inkscape:connector-curvature="0"
       id="path126"
       style="fill:#eacfc1;fill-opacity:1;fill-rule:nonzero;stroke:none;stroke-width:0.1"
       d="m 245.928,219.911 -1.708,-21.067 -41.356,-74.462 c 0,0 5.945,-10.385 2.175,-11.287 -3.77,-0.903 -14.827,2.243 -14.851,13.97 4.349,14.203 21.44,62.428 21.44,62.428 l 8.003,12.444 -0.117,23.386 26.414,-5.412" /><path
       inkscape:connector-curvature="0"
       id="path128"
       style="fill:#d7e8f4;fill-opacity:1;fill-rule:nonzero;stroke:none;stroke-width:0.1"
       d="m 199.203,290.434 c -0.326,6.211 1.66,22.415 3.701,28.221 7.44,21.172 8.874,31.607 8.874,48.839 0,17.234 -7.646,71.872 -7.646,71.872 l 26.563,15.944 31.841,-0.894 17.681,-5.831 c 0,0 3.743,-68.743 4.806,-90.899 0.758,-15.812 1.856,-29.506 3.302,-47.827 0,0 4.053,-41.786 -2.209,-86.581 0,0 -1.397,-14.875 -2.024,-16.177 -0.083,-0.443 -0.13,-0.68 -0.13,-0.68 l -0.254,-0.002 -70.806,0.002 v 25.527 c -2.357,8.194 -4.595,16.424 -6.741,24.675 -2.726,10.487 -6.352,22.284 -6.958,33.811" /><path
       inkscape:connector-curvature="0"
       id="path130"
       style="fill:#587bc9;fill-opacity:1;fill-rule:nonzero;stroke:none;stroke-width:0.1"
       d="m 214.18,450.494 -12.086,-9.09 c 0,0 9.194,-62.928 9.684,-73.91 0.491,-10.981 -13.661,-54.864 -13.661,-54.864 l 58.619,-7.646 c 0,0 8.621,46.865 11.102,70.147 2.482,23.281 -32.984,80.036 -32.984,80.036 l -20.674,-4.673" /><path
       inkscape:connector-curvature="0"
       id="path132"
       style="fill:#587bc9;fill-opacity:1;fill-rule:nonzero;stroke:none;stroke-width:0.1"
       d="m 272.946,451.6 11.963,-5.677 c 0,0 -1.682,-69.956 1.385,-87.724 1.87,-10.831 9.15,-45.903 9.15,-45.903 l -18.93,-6.479 c 0,0 -11.654,43.871 -13.97,67.153 -2.315,23.282 0.207,81.178 0.207,81.178 l 10.195,-2.548" /><path
       inkscape:connector-curvature="0"
       id="path134"
       style="fill:#3b455a;fill-opacity:1;fill-rule:nonzero;stroke:none;stroke-width:0.1"
       d="m 270.625,477.226 c 1.553,-6.01 -2.013,-11.948 -5.133,-17.017 -1.275,-2.071 -3.25,-4.953 -1.606,-7.317 1.842,-2.647 6.415,-2.117 8.427,-0.137 1.421,1.396 2.119,3.291 2.725,5.139 2.716,8.278 6.508,19.873 5.766,28.575 -0.595,6.977 -9.151,19.368 -17.965,14.934 -1.6,-0.804 -2.626,-2.316 -3.504,-3.803 -0.524,-0.887 -1.03,-1.818 -1.134,-2.83 -0.416,-4.041 3.48,-5.081 6.04,-7.251 3.156,-2.679 5.392,-6.456 6.384,-10.293" /><path
       inkscape:connector-curvature="0"
       id="path136"
       style="fill:#eacfc1;fill-opacity:1;fill-rule:nonzero;stroke:none;stroke-width:0.1"
       d="m 255.916,455.635 c 5.887,0.748 10.808,4.863 13.441,9.817 2.634,4.953 3.262,10.654 3.159,16.213 -0.343,18.497 -24.872,19.524 -34.409,6.231 -8.311,-11.584 0.692,-34.436 17.809,-32.261" /><path
       inkscape:connector-curvature="0"
       id="path138"
       style="fill:#3b455a;fill-opacity:1;fill-rule:nonzero;stroke:none;stroke-width:0.1"
       d="m 239.172,479.164 c -0.202,-2.239 -1.342,-4.615 -1.656,-6.916 -0.578,-4.236 0.37,-9.733 -1.181,-13.603 -4.301,0.588 -9.531,3.279 -12.718,6.23 -3.255,3.015 -2.669,7.497 -3.397,11.937 -0.673,4.108 -1.531,8.235 -1.296,12.391 1.285,22.75 23.987,35.191 43.989,24.928 7.567,-3.883 10.876,-13.75 5.31,-20.234 -5.987,-6.973 -18.151,-3.95 -25.32,-9.124 -1.591,-1.148 -2.814,-3.21 -3.731,-5.609" /><path
       inkscape:connector-curvature="0"
       id="path140"
       style="fill:#eacfc1;fill-opacity:1;fill-rule:nonzero;stroke:none;stroke-width:0.1"
       d="m 256.409,457.543 c -0.298,-1.377 -0.597,-2.754 -0.895,-4.131 -0.137,-0.632 -0.086,-2.438 -0.629,-2.872 -0.283,-0.226 -0.704,-0.192 -1.076,-0.146 -1.063,0.13 -10.583,1.342 -10.479,1.948 0.277,1.623 0.588,3.213 1.095,4.763 0.409,1.252 0.566,3.609 1.321,4.559 1.617,-1.105 3.288,-1.789 5.192,-2.329 1.838,-0.521 3.686,-1.012 5.541,-1.472 -0.023,-0.106 -0.047,-0.213 -0.07,-0.32" /><path
       inkscape:connector-curvature="0"
       id="path142"
       style="fill:#587bc9;fill-opacity:1;fill-rule:nonzero;stroke:none;stroke-width:0.1"
       d="m 232.251,453.102 -46.707,-3.394 10.462,68.103 -17.048,-0.092 -25.014,-71.391 8.687,-22.491 54.436,-5.031 15.184,34.296" /><path
       inkscape:connector-curvature="0"
       id="path144"
       style="fill:#587bc9;fill-opacity:1;fill-rule:nonzero;stroke:none;stroke-width:0.1"
       d="m 279.829,448.673 11.963,-5.677 29.288,-72.953 41.535,-17.572 -2.131,-14.91 -53.25,12.248 -24.495,43.131 -2.91,55.733" /><path
       inkscape:connector-curvature="0"
       id="path146"
       style="fill:#3b455a;fill-opacity:1;fill-rule:nonzero;stroke:none;stroke-width:0.1"
       d="m 350.524,313.115 -77.251,28.427 c -2.35,0.865 -3.502,3.612 -2.573,6.136 l 40.126,109.043 c 0.929,2.523 3.587,3.868 5.937,3.004 l 77.25,-28.428 c 2.35,-0.864 3.503,-3.611 2.574,-6.136 L 356.46,316.119 c -0.928,-2.523 -3.586,-3.869 -5.936,-3.004" /><path
       inkscape:connector-curvature="0"
       id="path148"
       style="fill:#bcbec0;fill-opacity:1;fill-rule:nonzero;stroke:none;stroke-width:0.1"
       d="m 322.806,381.039 -20.229,7.443 c -1.259,0.464 -1.876,1.935 -1.379,3.288 l 7.777,21.132 c 0.497,1.352 1.921,2.073 3.18,1.61 l 20.229,-7.445 c 1.259,-0.463 1.876,-1.934 1.379,-3.287 l -7.777,-21.133 c -0.498,-1.351 -1.922,-2.072 -3.18,-1.608" /><path
       inkscape:connector-curvature="0"
       id="path150"
       style="fill:#bcbec0;fill-opacity:1;fill-rule:nonzero;stroke:none;stroke-width:0.1"
       d="m 360.102,367.314 -20.229,7.444 c -1.259,0.464 -1.876,1.935 -1.379,3.287 l 7.777,21.133 c 0.498,1.352 1.921,2.072 3.18,1.609 l 20.229,-7.444 c 1.259,-0.463 1.876,-1.935 1.379,-3.286 l -7.777,-21.133 c -0.497,-1.353 -1.921,-2.073 -3.18,-1.61" /><path
       inkscape:connector-curvature="0"
       id="path152"
       style="fill:#bcbec0;fill-opacity:1;fill-rule:nonzero;stroke:none;stroke-width:0.1"
       d="m 310.092,346.49 -20.228,7.445 c -1.26,0.462 -1.877,1.934 -1.379,3.287 l 7.777,21.132 c 0.497,1.352 1.921,2.073 3.18,1.609 l 20.229,-7.443 c 1.259,-0.464 1.876,-1.935 1.378,-3.288 L 313.273,348.1 c -0.498,-1.352 -1.921,-2.073 -3.181,-1.61" /><path
       inkscape:connector-curvature="0"
       id="path154"
       style="fill:#305399;fill-opacity:1;fill-rule:nonzero;stroke:none;stroke-width:0.1"
       d="m 347.389,332.766 -20.229,7.444 c -1.259,0.463 -1.876,1.935 -1.379,3.287 l 7.777,21.133 c 0.497,1.351 1.921,2.072 3.18,1.608 l 20.229,-7.443 c 1.259,-0.463 1.876,-1.935 1.379,-3.287 l -7.777,-21.133 c -0.498,-1.352 -1.922,-2.072 -3.18,-1.609" /><path
       inkscape:connector-curvature="0"
       id="path156"
       style="fill:#eeeeee;fill-opacity:1;fill-rule:nonzero;stroke:none;stroke-width:0.1"
       d="m 319.039,398.318 5.744,-2.114 c 0.359,-0.132 0.611,-0.366 0.757,-0.703 0.146,-0.337 0.151,-0.687 0.018,-1.049 -0.133,-0.362 -0.358,-0.614 -0.673,-0.756 -0.316,-0.14 -0.658,-0.143 -1.028,-0.008 l -5.744,2.115 -2.345,-6.373 c -0.151,-0.409 -0.377,-0.699 -0.68,-0.87 -0.303,-0.171 -0.633,-0.192 -0.992,-0.059 -0.317,0.116 -0.543,0.353 -0.681,0.713 -0.137,0.359 -0.139,0.721 -0.006,1.083 l 2.346,6.374 -5.713,2.101 c -0.37,0.137 -0.631,0.361 -0.785,0.675 -0.154,0.315 -0.165,0.653 -0.031,1.015 0.125,0.34 0.362,0.594 0.711,0.762 0.349,0.167 0.692,0.188 1.03,0.064 l 5.713,-2.102 2.34,6.356 c 0.149,0.408 0.381,0.696 0.694,0.863 0.314,0.168 0.644,0.188 0.993,0.06 0.358,-0.132 0.597,-0.361 0.717,-0.689 0.119,-0.326 0.103,-0.694 -0.047,-1.101 l -2.338,-6.357" /><path
       inkscape:connector-curvature="0"
       id="path158"
       style="fill:#eeeeee;fill-opacity:1;fill-rule:nonzero;stroke:none;stroke-width:0.1"
       d="m 347.619,384.491 c -0.212,0.078 -0.352,0.21 -0.421,0.397 -0.069,0.185 -0.058,0.403 0.034,0.653 l 0.663,1.801 c 0.079,0.216 0.202,0.363 0.37,0.443 0.167,0.08 0.356,0.081 0.567,0.004 l 13.12,-4.828 c 0.242,-0.09 0.409,-0.222 0.5,-0.397 0.091,-0.175 0.098,-0.371 0.019,-0.585 l -0.663,-1.802 c -0.076,-0.203 -0.223,-0.359 -0.441,-0.465 -0.219,-0.107 -0.429,-0.122 -0.629,-0.048 l -13.119,4.827" /><path
       inkscape:connector-curvature="0"
       id="path160"
       style="fill:#eeeeee;fill-opacity:1;fill-rule:nonzero;stroke:none;stroke-width:0.1"
       d="m 336.482,354.859 c -0.211,0.078 -0.352,0.21 -0.42,0.397 -0.07,0.186 -0.059,0.404 0.033,0.653 l 0.663,1.802 c 0.079,0.215 0.202,0.362 0.37,0.442 0.167,0.08 0.356,0.081 0.567,0.004 l 13.12,-4.828 c 0.243,-0.089 0.409,-0.222 0.501,-0.396 0.091,-0.175 0.097,-0.371 0.018,-0.586 l -0.663,-1.802 c -0.075,-0.203 -0.222,-0.358 -0.441,-0.465 -0.218,-0.105 -0.428,-0.122 -0.628,-0.048 l -13.12,4.827" /><path
       inkscape:connector-curvature="0"
       id="path162"
       style="fill:#eeeeee;fill-opacity:1;fill-rule:nonzero;stroke:none;stroke-width:0.1"
       d="m 334.053,348.259 c -0.212,0.077 -0.352,0.209 -0.421,0.395 -0.069,0.187 -0.058,0.404 0.034,0.654 l 0.663,1.801 c 0.079,0.215 0.202,0.363 0.37,0.443 0.167,0.08 0.356,0.081 0.567,0.004 l 13.12,-4.828 c 0.242,-0.089 0.409,-0.222 0.5,-0.397 0.092,-0.175 0.098,-0.37 0.019,-0.586 l -0.663,-1.801 c -0.075,-0.204 -0.222,-0.359 -0.441,-0.465 -0.219,-0.106 -0.428,-0.123 -0.629,-0.048 l -13.119,4.828" /><path
       inkscape:connector-curvature="0"
       id="path164"
       style="fill:#eeeeee;fill-opacity:1;fill-rule:nonzero;stroke:none;stroke-width:0.1"
       d="m 297.812,364.634 c -0.212,0.077 -0.352,0.209 -0.421,0.395 -0.069,0.187 -0.058,0.405 0.034,0.654 l 0.663,1.801 c 0.079,0.215 0.202,0.364 0.37,0.444 0.167,0.08 0.355,0.081 0.567,0.003 l 13.12,-4.827 c 0.242,-0.09 0.409,-0.222 0.5,-0.398 0.091,-0.175 0.098,-0.37 0.019,-0.585 L 312,360.319 c -0.075,-0.204 -0.222,-0.359 -0.44,-0.465 -0.219,-0.106 -0.429,-0.122 -0.629,-0.048 l -13.119,4.828" /><path
       inkscape:connector-curvature="0"
       id="path166"
       style="fill:#eeeeee;fill-opacity:1;fill-rule:nonzero;stroke:none;stroke-width:0.1"
       d="m 308.287,367.46 c -0.371,-1.01 -1.435,-1.549 -2.376,-1.202 -0.941,0.346 -1.402,1.445 -1.03,2.456 0.371,1.01 1.435,1.549 2.376,1.202 0.941,-0.346 1.402,-1.445 1.03,-2.456" /><path
       inkscape:connector-curvature="0"
       id="path168"
       style="fill:#eeeeee;fill-opacity:1;fill-rule:nonzero;stroke:none;stroke-width:0.1"
       d="m 305.17,358.988 c -0.372,-1.01 -1.436,-1.549 -2.377,-1.202 -0.94,0.346 -1.401,1.445 -1.03,2.456 0.372,1.01 1.436,1.548 2.377,1.202 0.94,-0.346 1.402,-1.446 1.03,-2.456" /><path
       inkscape:connector-curvature="0"
       id="path170"
       style="fill:#d5e6f4;fill-opacity:1;fill-rule:nonzero;stroke:none;stroke-width:0.1"
       d="m 380.169,403.324 -69.612,25.616 6.012,16.338 69.612,-25.616 -6.012,-16.338" /><path
       inkscape:connector-curvature="0"
       id="path172"
       style="fill:#eacfc1;fill-opacity:1;fill-rule:nonzero;stroke:none;stroke-width:0.1"
       d="m 365.349,334.386 -8.282,-1.785 -0.238,13.249 8.52,5.763 7.92,-3.728 -7.92,-13.499" /><path
       inkscape:connector-curvature="0"
       id="path174"
       style="fill:#cc937a;fill-opacity:1;fill-rule:nonzero;stroke:none;stroke-width:0.1"
       d="m 742.246,578.501 2.149,13.611 -13.329,6.424 -11.146,-13.945 10.003,-9.134 12.323,3.044" /><path
       inkscape:connector-curvature="0"
       id="path176"
       style="fill:#d7e8f4;fill-opacity:1;fill-rule:nonzero;stroke:none;stroke-width:0.1"
       d="m 719.455,450.435 27.308,59.417 -19.914,65.534 17.546,4.484 24.775,-77.15 -29.052,-77.151 -16.671,24.119 -3.992,0.747" /><path
       inkscape:connector-curvature="0"
       id="path178"
       style="fill:#cc937a;fill-opacity:1;fill-rule:nonzero;stroke:none;stroke-width:0.1"
       d="m 764.156,118.969 0.048,0.067 -0.055,0.016 -2.64,34.606 -17.114,-3.673 8.485,-30.133 -4.367,-9.167 c 0,0 -1.669,-4.598 -0.109,-4.123 1.559,0.474 8.313,2.359 8.842,2.86 0.448,0.425 5.125,7.021 6.548,9.034 l 0.362,0.513" /><path
       inkscape:connector-curvature="0"
       id="path180"
       style="fill:#cc937a;fill-opacity:1;fill-rule:nonzero;stroke:none;stroke-width:0.1"
       d="m 687.867,144.399 2.695,-23.559 -4.478,-6.22 0.469,-4.098 11.999,3.967 5.4,2.694 0.348,33.247 -16.433,-6.031" /><path
       inkscape:connector-curvature="0"
       id="path182"
       style="fill:#96bfee;fill-opacity:1;fill-rule:nonzero;stroke:none;stroke-width:0.1"
       d="m 708.176,320.937 8.424,-66.622 5.218,-24.848 22.832,-91.809 20.803,4.273 -9.635,100.439 4.71,63.884 1.855,16.783 5.118,20.239 -59.325,-22.339" /><path
       inkscape:connector-curvature="0"
       id="path184"
       style="fill:#96bfee;fill-opacity:1;fill-rule:nonzero;stroke:none;stroke-width:0.1"
       d="m 665.719,317.476 3.364,-67.82 17.102,-113.232 20.486,2.343 0.639,67.006 11.096,125.279 -23.429,9.773 -18.746,5.12 -10.512,-28.469" /><path
       inkscape:connector-curvature="0"
       id="path186"
       style="fill:#154e93;fill-opacity:1;fill-rule:nonzero;stroke:none;stroke-width:0.1"
       d="m 690.562,120.84 -15.833,-15.82 1.216,-6.088 12.804,1.464 16.754,12.294 0.029,8.824 -1.713,1.361 c 0,0 -15.51,-9.558 -16.593,-9.162 -1.083,0.394 3.336,7.127 3.336,7.127" /><path
       inkscape:connector-curvature="0"
       id="path188"
       style="fill:#154e93;fill-opacity:1;fill-rule:nonzero;stroke:none;stroke-width:0.1"
       d="m 752.86,119.694 -8.031,-8.607 -4.86,-3.862 1.983,-6.626 7.11,-1.2412 18.731,11.3852 -1.718,8.15 -1.765,1.878 c 0,0 -7.334,-6.047 -14.226,-9.555 -1.949,-0.992 2.776,8.478 2.776,8.478" /><path
       inkscape:connector-curvature="0"
       id="path190"
       style="fill:#d7e8f4;fill-opacity:1;fill-rule:nonzero;stroke:none;stroke-width:0.1"
       d="m 686.686,451.196 c 0,0 7.217,8.569 34.539,8.569 27.321,0 47.726,-86.53 46.695,-102.06 -1.031,-15.529 2.793,-50.53 2.793,-50.53 l -63.922,16.034 c 0,0 -36.075,-0.068 -44.838,-8.636 -8.764,-8.568 17.057,61.147 17.572,77.212 0.516,16.066 -1.603,51.378 7.161,59.411" /><path
       inkscape:connector-curvature="0"
       id="path192"
       style="fill:#ffffff;fill-opacity:1;fill-rule:nonzero;stroke:none;stroke-width:0.1"
       d="m 716.144,457.813 2.503,-0.111 -8.095,-68.949 -14.072,29.255 -2.577,31.446 2.577,4.64 19.664,3.719" /><path
       inkscape:connector-curvature="0"
       id="path194"
       style="fill:#cc937a;fill-opacity:1;fill-rule:nonzero;stroke:none;stroke-width:0.1"
       d="m 679.674,485.454 c -1.686,20.9 25.276,24.567 37.287,10.548 7.836,-9.146 5.666,-26.401 -3.945,-34.208 0.133,-0.437 0.266,-0.841 0.408,-1.17 0.732,-1.697 1.253,-3.459 1.742,-5.262 0.181,-0.672 -10.192,-3.012 -11.351,-3.268 -0.406,-0.089 -0.867,-0.17 -1.204,0.055 -0.649,0.433 -0.794,2.477 -1.015,3.174 -0.262,0.825 -0.523,1.65 -0.785,2.474 -6.544,0.277 -12.397,4.398 -15.841,9.692 -3.46,5.319 -4.79,11.685 -5.296,17.965" /><path
       inkscape:connector-curvature="0"
       id="path196"
       style="fill:#3b455a;fill-opacity:1;fill-rule:nonzero;stroke:none;stroke-width:0.1"
       d="m 688.153,508.709 c 1.857,-0.745 3.158,-2.346 4.293,-3.933 0.677,-0.947 1.34,-1.944 1.568,-3.077 0.91,-4.513 -3.275,-6.085 -5.858,-8.796 -3.186,-3.343 -5.232,-7.832 -5.899,-12.262 -1.044,-6.938 3.555,-13.271 7.565,-18.669 1.413,-1.903 3.771,-4.619 2.954,-7.224 -0.83,-2.646 -4.814,-4.033 -7.242,-3.919 -2.219,0.106 -4.446,1.118 -6.597,0.578 -2.276,-0.571 -4.735,-2.755 -6.572,-1.24 -0.511,0.422 -0.825,1.072 -1.388,1.417 -1.904,1.163 -3.962,-2.072 -6.13,-1.612 -1.333,0.283 -2.002,1.835 -2.194,3.21 -0.191,1.376 -0.155,2.87 -0.939,4.011 -0.673,0.982 -1.816,1.492 -2.719,2.257 -1.784,1.514 -2.553,4.163 -1.858,6.403 1.292,4.163 6.596,5.795 8.153,9.861 0.811,2.118 0.443,4.501 0.104,6.76 -0.34,2.258 -0.619,4.675 0.342,6.726 1.186,2.533 4.091,3.459 5.114,6.296 0.601,1.667 0.674,3.526 1.479,5.1 1.06,2.074 3.833,4.523 5.585,6.11 2.779,2.517 6.726,3.411 10.239,2.003" /><path
       inkscape:connector-curvature="0"
       id="path198"
       style="fill:#3b455a;fill-opacity:1;fill-rule:nonzero;stroke:none;stroke-width:0.1"
       d="m 715.99,486.338 c 2.724,-5.932 2.577,-13.694 7.631,-17.756 5.101,-4.099 12.449,-2.029 18.478,0.272 0.991,0.379 13.676,4.836 13.878,5.007 6.488,5.493 -0.446,9.268 -1.197,13.852 -1.079,6.59 9.232,5.559 6.952,11.31 -1.294,-0.316 -2.543,0.891 -2.946,2.194 -0.404,1.303 -0.249,2.703 -0.399,4.057 -0.367,3.33 -2.749,6.363 -5.859,7.457 -6.205,2.185 -13.455,-3.014 -19.297,0.056 -3.623,1.903 -5.198,6.272 -7.987,9.309 -5.393,5.873 -13.591,4.014 -20.608,4.666 -7.408,0.687 -13.818,0.038 -20.206,-4.119 -7.92,-5.154 -10.471,-16.622 -3.603,-23.366 8.808,-8.65 25.303,-0.368 33.119,-9.642 0.84,-0.996 1.499,-2.11 2.044,-3.297" /><path
       inkscape:connector-curvature="0"
       id="path200"
       style="fill:#3b455a;fill-opacity:1;fill-rule:nonzero;stroke:none;stroke-width:0.1"
       d="m 754.431,215.458 -133.798,-15.543 -10.081,86.78 133.798,15.543 10.081,-86.78" /><path
       inkscape:connector-curvature="0"
       id="path202"
       style="fill:#3b455a;fill-opacity:1;fill-rule:nonzero;stroke:none;stroke-width:0.1"
       d="m 704.296,298.619 -7.313,-0.849 -1.708,14.707 -39.301,-4.566 1.546,-13.312 -7.312,-0.85 -1.779,15.312 c -0.366,3.147 1.761,5.98 4.752,6.328 l 43.099,5.007 c 2.99,0.346 5.71,-1.923 6.075,-5.071 l 1.941,-16.706" /><path
       inkscape:connector-curvature="0"
       id="path204"
       style="fill:#3b455a;fill-opacity:1;fill-rule:nonzero;stroke:none;stroke-width:0.1"
       d="m 746.721,281.831 -63.669,-18.069 -70.129,2.527 -2.895,24.922 133.798,15.543 2.895,-24.923" /><path
       inkscape:connector-curvature="0"
       id="path206"
       style="fill:#bcbec0;fill-opacity:1;fill-rule:nonzero;stroke:none;stroke-width:0.1"
       d="m 689.733,268.44 -18.099,-2.102 1.015,-9.808 6.041,0.701 0.308,-2.652 c 0.085,-0.736 0.723,-1.267 1.424,-1.185 l 3.553,0.412 c 0.701,0.082 1.2,0.745 1.114,1.48 l -0.308,2.653 6.029,0.701 -1.077,9.8" /><path
       inkscape:connector-curvature="0"
       id="path208"
       style="fill:#d7e8f4;fill-opacity:1;fill-rule:nonzero;stroke:none;stroke-width:0.1"
       d="m 688.232,411.658 2.537,41.756 -14.909,-7.732 -30.415,-53.613 21.119,-75.722 12.249,2.308 -2.008,30.548 -9.153,35.32 0.475,0.33 20.105,26.805" /><path
       inkscape:connector-curvature="0"
       id="path210"
       style="fill:#cc937a;fill-opacity:1;fill-rule:nonzero;stroke:none;stroke-width:0.1"
       d="m 669.691,304.365 c 0.026,-0.133 -3.702,3.595 -3.702,3.595 l 0.575,8.387 12.249,2.308 2.086,-3.773 -11.208,-10.517" /></g></svg>