<?xml version="1.0" encoding="UTF-8" standalone="no"?>
<svg
   xmlns:dc="http://purl.org/dc/elements/1.1/"
   xmlns:cc="http://creativecommons.org/ns#"
   xmlns:rdf="http://www.w3.org/1999/02/22-rdf-syntax-ns#"
   xmlns:svg="http://www.w3.org/2000/svg"
   xmlns="http://www.w3.org/2000/svg"
   viewBox="0 0 1234.2639 960.95943"
   height="960.95947"
   width="1234.2639"
   xml:space="preserve"
   id="svg2"
   version="1.1"><metadata
     id="metadata8"><rdf:RDF><cc:Work
         rdf:about=""><dc:format>image/svg+xml</dc:format><dc:type
           rdf:resource="http://purl.org/dc/dcmitype/StillImage" /><dc:title></dc:title></cc:Work></rdf:RDF></metadata><defs
     id="defs6" /><g
     transform="matrix(1.3333333,0,0,-1.3333333,-131.14954,1021.5475)"
     id="g10"><path
       d="m 896.332,45.441 c -5.739,0 -11.509,0.232 -17.345,0.7981 -22.292,2.164 -44.888,3.2449 -67.069,6.3328 -50.907,7.0871 -101.837,7.5062 -153.113,7.5062 -20.36,0 -40.719,0.1969 -61.075,0.1969 -29.637,0 -59.263,-0.4191 -88.842,-2.477 -46.144,-3.2121 -92.359,-3.7242 -138.586,-3.7242 -6.975,0 -13.956,0.0121 -20.931,0.0282 -0.45,0.0011 -0.897,0.0011 -1.347,0.0011 -25.595,0 -51.091,-1.6402 -76.648,-2.798 -25.672,-1.1641 -50.635,-3.075 -76.158,-3.075 -2.302,0 -4.611,0.0148 -6.923,0.0488 -25.502,0.3641 -64.334,8.091 -82.528,27.784 -10.8022,11.7023 -9.3377,39.8521 1.481,51.1331 4.726,4.929 12.344,8.789 18.568,11.137 17.728,6.69 35.77,6.707 54.295,6.845 0.228,0.002 0.453,0.003 0.681,0.003 1.279,0 2.562,-0.027 3.849,-0.079 l -6.261,-42.877 16.514,-4.543 15.457,43.521 c 2.966,-0.737 5.895,-1.552 8.766,-2.425 11.147,-3.387 22.535,-4.574 33.872,-6.682 1.196,-0.223 2.403,-0.43 3.62,-0.623 l 6.503,-39.814 15.602,1.332 2.195,36.557 c 0.366,-0.003 0.733,-0.004 1.099,-0.004 6.386,0 12.729,0.35 18.811,1.03 7.45,0.832 14.923,1.463 22.403,2.038 -0.034,-1.087 0.031,-2.119 0.308,-2.957 1.455,-4.403 7.856,-5.492 11.888,-5.968 2.756,-0.325 5.531,-0.488 8.306,-0.488 0.767,0 1.534,0.012 2.3,0.037 0.722,3.784 1.533,7.555 2.414,11.315 0.642,0.054 1.285,0.11 1.926,0.166 13.299,1.168 26.414,3.22 39.564,5.089 -0.296,-4.4 -0.677,-8.786 -1.175,-13.154 3.345,-1.163 6.778,-2.074 10.26,-2.723 1.683,-0.315 3.802,-0.65 5.89,-0.65 2.865,0 5.674,0.63 7.235,2.811 1.38,1.928 1.716,5.657 2.302,7.923 0.791,3.053 1.553,6.113 2.296,9.178 8.369,1.237 16.63,3.17 25.036,4.143 27.061,3.13 54.17,3.808 81.279,3.892 2.199,0.006 4.396,0.009 6.594,0.009 12.906,0 25.812,-0.1 38.71,-0.1 9.792,0 19.575,0.028 29.361,0.032 0.456,-12.823 0.743,-25.658 0.547,-38.566 -0.072,-4.852 -1.922,-11.199 2.086,-14.7518 1.315,-1.166 2.708,-1.789 4.003,-1.789 1.649,0 3.139,1.0109 4.109,3.2 1.771,3.9958 1.464,8.6288 2.072,12.8638 1.886,13.126 5.485,26.008 8.355,38.993 13.754,-0.084 27.509,-0.292 41.25,-0.772 0.318,-6.173 0.79,-12.341 1.167,-18.508 0.656,-10.755 -1.511,-21.841 3.591,-31.809 1.01,-1.9729 2.739,-3.5678 4.529,-3.5678 1.046,0 2.111,0.5449 3.067,1.8757 1.996,2.7821 1.077,7.5971 1.571,10.8271 2.061,13.502 5.111,26.817 8.003,40.162 8.426,-0.498 16.85,-1.128 25.27,-1.925 11.089,-1.049 22.106,-0.414 33.041,-2.91 10.978,-2.505 22.061,-4.791 33.31,-5.238 9.623,-0.382 19.273,-0.507 28.935,-0.507 17.189,0 34.411,0.398 51.542,0.462 1.716,0.007 4.103,0.018 7.065,0.018 38.345,0 171.921,-1.832 162.341,-38.902 C 1019.89,86.0781 998.483,67.5379 986.476,61.5711 971.307,54.032 954.719,49.5719 938.022,48.068 923.949,46.8012 910.228,45.441 896.332,45.441"
       style="fill:#f6eaea;fill-opacity:1;fill-rule:nonzero;stroke:none;stroke-width:0.1"
       id="path16" /><path
       d="m 350.088,406.486 c -0.228,0.189 -0.465,0.382 -0.728,0.494 -2.454,1.047 -4.36,0.123 -6.997,0.457 -1.176,0.149 -2.498,2.897 -4.094,1.005 -0.589,-0.699 -1.792,-2.616 -3.034,-4.118 -1.811,-2.189 -5.43,-3.87 -8.549,-4.674 -4.192,-1.081 -8.655,-2.128 -12.927,-2.568 -8.976,-0.922 -19.068,-0.961 -28.067,-0.158 0.663,14.92 -7.735,29.884 -20.817,37.089 -1.367,0.753 -2.837,1.441 -4.398,1.457 -1.32,0.013 -2.6,-0.459 -3.774,-1.06 -12.423,-6.362 -5.864,-17.86 -0.967,-27.347 3.056,-5.921 6.535,-11.737 10.433,-17.146 5.459,-7.574 13.358,-9.082 22.454,-8.81 9.639,0.288 19.398,0.753 28.794,3.093 4.566,1.137 8.59,3.052 12.927,4.758 4.285,1.686 4.796,-0.317 8.927,0.197 2.304,0.286 4.708,0.142 6.927,0.855 3.98,1.278 5.35,5.372 6.899,8.831 0.385,0.861 0.649,1.442 0.591,2.324 -0.094,1.435 -1.012,2.487 -1.885,3.563 -0.517,0.637 -1.088,1.236 -1.715,1.758"
       style="fill:#e5d1bd;fill-opacity:1;fill-rule:nonzero;stroke:none;stroke-width:0.1"
       id="path18" /><path
       d="m 252.313,399.021 c 2.818,-4.309 5.768,-8.416 8.763,-12.26 4.466,-5.732 9.5,-11.837 16.59,-13.429 2.732,-0.614 5.57,-0.493 8.368,-0.355 13.262,0.658 26.508,1.648 39.721,2.97 0.982,6.905 0.91,13.959 -0.213,20.842 -0.315,1.932 -0.796,3.998 -2.278,5.276 -2.201,1.9 -5.537,1.258 -8.346,0.508 -4.576,-1.222 -9.151,-2.443 -13.726,-3.665 -1.484,-0.396 -3.143,-0.775 -4.493,-0.04 -0.881,0.48 -1.464,1.356 -1.997,2.206 -10.083,16.07 -15.337,31.391 -20.941,49.363 -2.471,7.922 -5.093,16.112 -10.647,22.277 -11.861,13.163 -33.829,5.322 -33.057,-12.993 0.88,-20.882 10.409,-42.583 22.256,-60.7"
       style="fill:#d67086;fill-opacity:1;fill-rule:nonzero;stroke:none;stroke-width:0.1"
       id="path20" /><path
       d="m 659.144,208.484 0.689,-41.87 c -0.282,-11.617 0.765,-23.198 1.472,-34.777 0.656,-10.755 -1.511,-21.841 3.591,-31.809 1.6,-3.1249 5.005,-5.3018 7.596,-1.6921 1.996,2.7821 1.077,7.5971 1.571,10.8271 3.706,24.273 10.604,47.944 14.046,72.262 3.606,25.474 -6.249,24.801 -28.965,27.059"
       style="fill:#eacdb0;fill-opacity:1;fill-rule:nonzero;stroke:none;stroke-width:0.1"
       id="path22" /><path
       d="m 661.523,107.186 -2.692,-6.985 13.247,-11.66 12.134,-0.5 3.925,6.4031 -16.321,14.1909 -10.293,-1.449"
       style="fill:#292949;fill-opacity:1;fill-rule:nonzero;stroke:none;stroke-width:0.1"
       id="path24" /><path
       d="m 629.482,208.077 -7.637,-41.176 c -2.647,-18.419 -8.665,-36.357 -11.312,-54.777 -0.608,-4.235 -0.301,-8.868 -2.072,-12.8638 -1.731,-3.9082 -5.121,-4.0622 -8.112,-1.411 -4.008,3.5528 -2.158,9.8998 -2.086,14.7518 0.491,32.326 -2.052,64.193 -2.663,96.571 -0.008,0.424 0.01,0.911 0.339,1.18 0.266,0.22 0.647,0.215 0.991,0.192 3.144,-0.21 32.387,-3.356 32.552,-2.467"
       style="fill:#eacdb0;fill-opacity:1;fill-rule:nonzero;stroke:none;stroke-width:0.1"
       id="path26" /><path
       d="m 598.17,105.467 -4.199,-6.1971 10.273,-14.3488 11.709,-3.2262 5.268,5.352 -12.696,17.5081 -10.355,0.912"
       style="fill:#292949;fill-opacity:1;fill-rule:nonzero;stroke:none;stroke-width:0.1"
       id="path28" /><path
       d="m 702.298,181.843 -5.712,59.862 -2.755,38.894 -9.263,31.767 -50.013,7.762 -61.834,-10.598 -2.972,-12.014 11.9,-111.203 59.641,-4.47 -0.809,69.212 9.2,-42.9 -0.391,-26.312 h 53.008"
       style="fill:#1a3151;fill-opacity:1;fill-rule:nonzero;stroke:none;stroke-width:0.1"
       id="path30" /><path
       d="m 585.847,429.324 c -0.084,-2.021 -0.139,-4.041 -0.175,-6.057 -0.724,-41.061 1.54,-82.645 1.8,-124.047 21.204,3.32 42.64,5.148 64.099,5.472 4.968,0.076 27.551,-3.412 30.695,-0.446 4.267,4.024 -0.426,3.266 -0.113,8.51 0.404,6.784 -2.856,12.34 -1.625,20.379 1.448,9.448 4.326,18.793 5.985,28.24 3.324,18.942 5.326,38.116 5.976,57.336 0.575,17.048 -0.043,34.728 -7.374,50.13 -18.079,37.981 -76.365,37.298 -92.358,-2.359 -4.737,-11.746 -6.382,-24.463 -6.91,-37.158"
       style="fill:#ffffff;fill-opacity:1;fill-rule:nonzero;stroke:none;stroke-width:0.1"
       id="path32" /><path
       d="m 651.618,482.603 -15.831,-28.85 c 0.828,-29.143 1.655,-58.286 2.482,-87.43 0.381,-13.431 0.763,-26.862 1.144,-40.293 0.132,-4.663 0.248,-9.328 0.397,-13.991 0.067,-2.093 -0.511,-5.617 0.683,-7.325 2.591,-3.708 12.066,-2.552 16.198,-2.877 6.445,-0.507 12.984,-1.034 19.054,-3.259 4.042,-1.481 7.872,-3.712 12.135,-4.311 0.958,-0.134 2.029,-0.153 2.781,0.455 0.841,0.679 0.985,1.885 1.064,2.963 1.482,20.008 1.512,40.634 2.622,60.856 0.873,15.904 3.027,31.935 2.268,47.862 -0.781,16.382 -3.345,32.679 -6.477,48.759 -1.854,9.52 -4.034,19.226 -9.274,27.387 -5.941,9.251 -14.35,12.957 -24.709,15.043 -3.658,0.736 -17.275,5.885 -15.002,-2.432 1.124,-4.114 7.688,-9.253 10.465,-12.557"
       style="fill:#474ebb;fill-opacity:1;fill-rule:nonzero;stroke:none;stroke-width:0.1"
       id="path34" /><path
       d="m 617.177,479.89 15.83,-28.85 c -0.331,0 -2.007,-70.718 -2.142,-75.491 -0.516,-18.153 -1.031,-36.306 -1.546,-54.459 -0.143,-5.045 0.535,-10.956 -0.452,-15.915 -1.378,-6.925 -8.667,-5.562 -14.879,-6.122 -13.587,-1.225 -27.892,-3.544 -41.516,-2.856 -3.93,0.198 1.242,82.214 1.235,89.867 -0.027,27.527 -5.706,58.067 8.277,83.03 4.069,7.263 11.241,18.907 19.158,22.493 7.378,3.342 17.939,3.91 25.948,5.783 l 0.417,-5.19 -10.33,-12.29"
       style="fill:#474ebb;fill-opacity:1;fill-rule:nonzero;stroke:none;stroke-width:0.1"
       id="path36" /><path
       d="m 651.536,549.77 c 2.493,-4.368 3.694,-9.399 3.915,-14.423 0.059,-1.336 0.15,-2.878 1.23,-3.667 1.156,-0.844 0.14,-2.696 1.019,-1.567 0.88,1.13 3.866,5.052 4,6.477 0.315,3.339 0.31,6.708 -0.014,10.046 -0.282,2.903 -0.875,5.936 -2.775,8.149 -1.126,1.313 -2.629,2.235 -4.109,3.129 -2.147,1.297 -4.359,2.605 -6.824,3.065 -4.25,0.791 -6.856,-0.733 -3.107,-3.697 2.687,-2.122 4.958,-4.52 6.665,-7.512"
       style="fill:#292949;fill-opacity:1;fill-rule:nonzero;stroke:none;stroke-width:0.1"
       id="path38" /><path
       d="m 624.985,492.782 c 0.029,-2.056 -0.393,-4.189 1.421,-5.783 0.872,-0.767 2.051,-1.074 3.198,-1.256 2.963,-0.469 6.035,-0.251 8.903,0.632 1.18,0.364 2.355,0.857 3.246,1.712 1.053,1.01 1.106,1.968 1.156,3.291 0.059,1.55 0.373,3.125 0.575,4.697 0.444,3.437 0.644,6.902 0.743,10.365 5.092,0.874 11.08,2.52 12.821,7.854 0.548,1.68 0.567,3.507 0.58,5.295 0.055,7.389 0.109,14.778 0.163,22.168 0.019,2.555 0.024,5.189 -0.851,7.561 -1.536,4.161 -5.438,6.642 -9.264,8.203 -9.765,3.983 -21.147,3.824 -30.16,-1.842 -2.398,-1.507 -4.662,-3.446 -6.044,-6.079 -2.13,-4.059 -1.862,-9.071 -1.531,-13.755 0.305,-4.323 0.61,-8.647 0.916,-12.97 0.351,-4.973 1.098,-10.696 4.959,-13.323 2.051,-1.394 4.7,-1.65 6.467,-3.454 3.085,-3.15 1.614,-7.855 2.526,-11.672 0.128,-0.534 0.169,-1.086 0.176,-1.644"
       style="fill:#eacdb0;fill-opacity:1;fill-rule:nonzero;stroke:none;stroke-width:0.1"
       id="path40" /><path
       d="m 640.99,512.13 c -2.653,-1.784 -5.576,-1.88 -8.533,-0.99 -1.257,0.378 -0.724,2.488 0.535,2.109 2.45,-0.738 4.763,-0.719 6.972,0.766 1.111,0.747 2.131,-1.143 1.026,-1.885 z m 18.43,10.405 c -0.083,1.37 -0.681,5.385 -2.742,2.862 -0.538,-0.66 -0.671,-1.593 -0.704,-2.471 -0.034,-0.879 0.006,-1.783 -0.27,-2.611 -0.636,-1.899 -2.737,-2.763 -4.61,-2.729 -0.744,0.013 -1.503,0.135 -2.161,0.51 -0.639,0.364 -1.146,0.942 -1.641,1.51 -1.202,1.379 -2.403,2.757 -3.604,4.136 -2.065,2.37 -6.162,1.345 -8.945,0.982 -3.206,-0.419 -6.415,-1.387 -9.035,-3.497 -0.265,-0.213 -0.523,-0.436 -0.782,-0.66 -0.632,-0.545 -1.267,-1.084 -2.001,-1.442 -2.477,-1.206 -5.544,0.053 -7.28,2.309 -0.796,1.034 -1.538,2.364 -2.773,2.537 -0.967,0.135 -1.908,-0.558 -2.404,-1.462 -0.496,-0.905 -0.63,-1.984 -0.697,-3.032 -0.244,-3.817 0.282,-7.753 1.936,-11.138 3.588,-7.341 10.524,-8.242 17.495,-8.078 2.755,0.065 5.51,0.13 8.266,0.195 5.037,0.119 10.362,0.328 14.606,3.256 3.743,2.584 5.968,6.976 6.88,11.576 0.471,2.374 0.612,4.825 0.466,7.247"
       style="fill:#292949;fill-opacity:1;fill-rule:nonzero;stroke:none;stroke-width:0.1"
       id="path42" /><path
       d="m 660.472,562.575 c 0.487,1.791 0.847,3.616 1.075,5.458 -1.704,-0.598 -3.561,-0.758 -5.343,-0.458 -0.004,1.062 -0.008,2.125 -0.012,3.188 -0.008,0.883 -11.963,1.502 -12.935,1.582 -9.094,0.746 -17.411,1.455 -25.634,-3.425 -7.025,-4.17 -11.529,-10.395 -12.606,-18.499 -1.03,-7.742 1.504,-17.854 5.981,-24.28 -0.026,2.062 -1.212,6.923 -0.726,8.882 0.298,1.963 0.976,3.856 1.912,5.604 1.868,3.489 4.762,6.425 8.106,8.521 5.33,3.34 11.527,5.106 17.717,5.969 5.671,0.79 12.582,1.518 18.184,0.016 2.693,-0.722 3.14,-1.398 4.771,1.321 0.288,0.479 2.568,6.075 2.345,6.079 -0.945,0.014 -1.89,0.028 -2.835,0.042"
       style="fill:#292949;fill-opacity:1;fill-rule:nonzero;stroke:none;stroke-width:0.1"
       id="path44" /><path
       d="m 696.848,454.991 c -2.625,0.056 -5.103,1.238 -7.292,2.687 -8.749,5.792 -12.552,16.382 -17.361,25.272 -2.868,5.302 -5.677,13.169 -10.124,17.277 -0.834,0.77 -10.4,5.317 -10.32,5.615 l 0.485,2.615 2.6,-0.5 1.543,1.057 -6.962,3.599 4.57,7.7 10.371,0.261 c 3.021,-5.772 4.611,-12.45 8.966,-17.407 1.842,-2.097 4.012,-3.876 6.027,-5.808 3.459,-3.318 6.444,-7.077 9.573,-10.697 4.008,-4.639 10.107,-8.421 12.453,-14.241 1.309,-3.245 3.463,-10.554 1.969,-13.808 -1.096,-2.385 -3.874,-3.677 -6.498,-3.622"
       style="fill:#eacdb0;fill-opacity:1;fill-rule:nonzero;stroke:none;stroke-width:0.1"
       id="path46" /><path
       d="m 704.468,466.865 c 0.633,-0.098 1.31,-0.217 1.768,-0.665 0.514,-0.501 0.616,-1.278 0.674,-1.993 0.673,-8.237 -0.604,-16.497 -1.963,-24.649 -1.889,-11.34 -4.294,-23.358 -12.249,-31.656 -4.584,-4.781 -12.003,-7.962 -17.844,-4.837 -5.108,2.732 -6.98,9.064 -7.775,14.803 -2.352,16.964 0.533,34.618 8.165,49.95 0.51,1.025 1.074,2.078 2.002,2.748 2.276,1.643 9.379,-0.936 12.066,-1.353 5.052,-0.782 10.104,-1.565 15.156,-2.348"
       style="fill:#474ebb;fill-opacity:1;fill-rule:nonzero;stroke:none;stroke-width:0.1"
       id="path48" /><path
       d="m 573.86,502.068 c 3.414,2.802 4.669,7.446 3.136,11.6 -2.803,7.59 -5.605,15.181 -8.408,22.771 -1.573,4.262 -4.577,9.342 -4.631,13.788 -0.096,7.858 2.704,16.769 4.316,24.429 0.818,3.889 1.119,9.39 3.16,12.822 0.382,0.643 5.578,5.312 5.471,5.485 l -0.797,1.563 -1.55,-0.804 -1.174,0.379 3.727,3.581 -4.334,4.011 -6.606,-1.78 c -0.827,-4.216 -0.58,-8.736 -2.403,-12.688 -0.771,-1.671 -1.81,-3.202 -2.721,-4.802 -1.565,-2.747 -2.747,-5.683 -4.046,-8.559 -1.256,-2.782 -3.062,-5.326 -4.261,-8.081 -2.674,-6.147 -5.304,-12.314 -7.956,-18.471 l 12.291,-40.147 c 2.192,-7.16 11.009,-9.837 16.786,-5.097"
       style="fill:#eacdb0;fill-opacity:1;fill-rule:nonzero;stroke:none;stroke-width:0.1"
       id="path50" /><path
       d="m 603.102,498.295 c -4.984,2.173 -9.682,5.093 -13.538,8.666 -1.775,1.645 -9.798,16.861 -8.337,17.262 -0.123,-0.039 -0.247,-0.078 -0.37,-0.117 l -1.08,-0.402 -0.147,0.016 c -2.396,0.243 -6.716,-2.14 -9.05,-2.882 -7.579,-2.41 -15.086,-5.163 -22.876,-6.499 0.002,-6.818 1.318,-13.594 3.226,-20.118 1.745,-5.969 4.727,-10.849 6.994,-16.473 2.353,-5.836 5.401,-11.251 8.483,-16.725 0.753,-1.337 8.303,-16.887 7.866,-16.962 4.377,0.749 7.75,4.214 10.437,7.749 6.311,8.305 9.311,19.558 17.232,26.334 6.153,5.265 14.198,5.775 13.41,16.412 -4.077,0.734 -8.255,1.996 -12.25,3.739"
       style="fill:#474ebb;fill-opacity:1;fill-rule:nonzero;stroke:none;stroke-width:0.1"
       id="path52" /><path
       d="m 472.544,525.725 c 0.071,-1.229 -0.61,-2.624 -1.045,-3.74 -1.518,-3.893 -2.014,-8.179 -1.424,-12.315 4.032,0.013 8.066,-0.643 11.887,-1.934 0.836,3.021 1.671,6.041 2.507,9.061 0.131,0.474 0.27,0.963 0.582,1.344 0.402,0.49 1.027,0.726 1.616,0.96 3.241,1.288 6.261,3.125 8.895,5.411 0.573,0.497 1.145,1.04 1.432,1.742 0.259,0.634 0.261,1.34 0.26,2.025 -0.008,5.462 -0.017,10.923 -0.026,16.385 0,0.61 -0.015,1.263 -0.363,1.764 -0.358,0.515 -0.987,0.753 -1.578,0.963 -0.933,0.331 -1.867,0.662 -2.8,0.992 -0.26,0.137 -0.54,0.238 -0.843,0.299 -1.898,0.673 -2.351,0.62 -4.227,0.005 -0.364,-0.119 -4.434,-1.033 -4.467,-0.689 0.561,-5.79 -1.094,-11.767 -4.553,-16.444 -0.236,-0.32 -0.527,-0.66 -0.923,-0.694 -0.42,-0.036 -0.776,0.287 -1.062,0.596 -1.276,1.377 -2.331,2.957 -3.115,4.663 -1.506,-0.377 -3.013,-0.754 -4.52,-1.131 -0.398,-2.407 0.404,-5.102 2.117,-6.858 0.181,-0.186 0.352,-0.337 0.508,-0.469 0.651,-0.549 1.076,-0.785 1.142,-1.936"
       style="fill:#eacdb0;fill-opacity:1;fill-rule:nonzero;stroke:none;stroke-width:0.1"
       id="path54" /><path
       d="m 487.724,517.491 -18.824,3.083 -19.198,-52.54 -45.355,7.726 9.878,-60.453 57.696,34.555 15.803,67.629"
       style="fill:#353a85;fill-opacity:1;fill-rule:nonzero;stroke:none;stroke-width:0.1"
       id="path56" /><path
       d="m 338.518,114.217 c -2.863,-0.19 -5.481,0.816 -8.255,1.127 0.132,9.8 1.194,19.196 3.305,28.871 4.314,-4.789 7.947,-2.005 7.8,-11.004 -0.048,-2.913 -3.411,-14.562 -2.85,-18.994"
       style="fill:#e5d1bd;fill-opacity:1;fill-rule:nonzero;stroke:none;stroke-width:0.1"
       id="path58" /><path
       d="m 329.636,120.218 c -3.255,1.165 -3.989,-6.608 -4.014,-8.436 -0.015,-1.098 0.115,-2.218 -0.164,-3.28 -0.307,-1.17 -1.079,-2.153 -1.831,-3.099 -1.576,-1.981 -3.152,-3.962 -4.728,-5.9428 -0.708,-0.8911 -1.429,-1.8032 -1.809,-2.8762 -0.941,-2.659 0.614,-5.8121 3.132,-7.0848 8.736,-4.4121 16.716,6.2738 18.608,13.3278 0.29,1.082 0.502,2.182 0.713,3.282 0.437,2.274 2.159,7.233 1.256,9.455 -1.053,2.592 -4.243,0.714 -6.334,1.691 -1.939,0.906 -3.512,2.491 -4.829,2.963"
       style="fill:#292949;fill-opacity:1;fill-rule:nonzero;stroke:none;stroke-width:0.1"
       id="path60" /><path
       d="m 391.702,275.68 c -8.145,-22.173 -17.543,-43.861 -22.903,-67.072 -6.621,-28.673 -17.296,-56.635 -22.775,-85.372 -3.54,-0.115 -7.088,0.036 -10.606,0.451 -4.032,0.476 -10.433,1.565 -11.888,5.968 -0.744,2.251 0.045,5.911 0.158,8.249 0.364,7.488 0.898,14.968 1.449,22.444 1.558,21.154 2.627,42.566 6.517,63.42 4.093,21.937 8.013,43.95 11.614,65.885 1.861,11.336 4.153,22.602 6.973,33.74 0.727,2.87 8.293,32.449 9.778,32.213 17.628,-2.805 34.12,-8.643 49.472,-17.747 1.492,-0.885 2.932,-1.94 3.451,-3.515 0.519,-1.575 0.049,-2.933 -0.432,-4.362 -4.588,-13.635 -10.706,-26.421 -15.598,-40.002 -1.702,-4.725 -3.429,-9.45 -5.21,-14.3"
       style="fill:#5d66d3;fill-opacity:1;fill-rule:nonzero;stroke:none;stroke-width:0.1"
       id="path62" /><path
       d="m 393.237,115.809 c 2.677,-1.033 5.476,-0.852 8.217,-1.379 2.788,9.395 4.569,18.682 5.431,28.547 -5.543,-3.289 -8.184,0.449 -10.72,-8.186 -0.821,-2.795 -1.074,-14.918 -2.928,-18.982"
       style="fill:#e5d1bd;fill-opacity:1;fill-rule:nonzero;stroke:none;stroke-width:0.1"
       id="path64" /><path
       d="m 404.256,117.258 c 0.007,-5.313 4.189,-11.034 6.503,-15.812 0.272,-0.562 0.55,-1.147 0.561,-1.771 0.016,-0.9281 -0.55,-1.752 -1.094,-2.5039 -0.754,-1.0441 -1.574,-2.141 -2.773,-2.6109 -1.179,-0.461 -2.503,-0.2301 -3.74,0.0418 -2.068,0.4543 -4.116,1.0019 -6.134,1.6441 -0.503,0.159 -1.016,0.3309 -1.427,0.6629 -0.485,0.3941 -0.777,0.9711 -1.055,1.5308 -1.428,2.8732 -2.641,4.9122 -2.564,8.1122 0.079,3.306 0.496,6.731 -0.108,10.007 -0.299,1.589 -0.695,3.621 0.667,4.493 1.052,0.675 2.979,-0.255 4.125,-0.442 2.021,-0.329 3.889,-0.204 5.751,-1.266 0.379,-0.216 0.749,-0.476 0.983,-0.845 0.237,-0.375 0.304,-0.798 0.305,-1.241"
       style="fill:#292949;fill-opacity:1;fill-rule:nonzero;stroke:none;stroke-width:0.1"
       id="path66" /><path
       d="m 390.481,285.783 c 1.181,-23.592 3.704,-47.094 1.918,-70.849 -2.206,-29.345 -0.33,-59.216 -3.646,-88.282 3.345,-1.163 6.778,-2.074 10.26,-2.723 3.992,-0.746 10.426,-1.61 13.125,2.161 1.38,1.928 1.716,5.657 2.302,7.923 1.88,7.257 3.595,14.559 5.292,21.86 4.804,20.659 10.152,41.421 12.64,62.488 2.616,22.162 5.421,44.345 8.506,66.357 1.595,11.378 2.757,22.816 3.377,34.288 0.16,2.956 1.734,33.447 0.245,33.664 -17.664,2.564 -35.145,1.895 -52.511,-2.232 -1.688,-0.401 -3.376,-0.979 -4.34,-2.329 -0.965,-1.35 -0.919,-2.786 -0.885,-4.294 0.326,-14.381 2.364,-28.408 2.995,-42.83 0.219,-5.017 0.464,-10.042 0.722,-15.202"
       style="fill:#5d66d3;fill-opacity:1;fill-rule:nonzero;stroke:none;stroke-width:0.1"
       id="path68" /><path
       d="m 380.56,475.103 c -0.287,-0.097 -0.573,-0.199 -0.857,-0.307 -4.742,-1.8 -8.776,-5.038 -12.722,-8.226 -5.927,-4.787 -8.846,-6.886 -11.135,-13.976 -2.135,-6.613 -3.471,-13.596 -4.779,-20.41 -6.711,-34.983 -8.008,-69.82 -12.825,-105.066 -1.312,-9.594 -2.324,-20.873 4.771,-27.463 12.589,9.798 28.415,10.364 43.684,10.377 10.723,0.01 21.207,3.483 31.955,2.286 5.479,-0.61 10.589,-0.164 15.747,0.282 4.511,0.39 9.058,0.78 13.922,0.463 2.514,-0.163 5.716,-0.136 6.707,2.18 -3.608,10.814 -3.546,22.444 -4.362,33.814 -2.112,29.412 -11.856,57.635 -15.788,86.848 -1.337,9.93 -2.05,26.411 -9.739,33.927 -8.357,8.168 -27.418,8.335 -38.157,6.737 -2.175,-0.323 -4.341,-0.762 -6.422,-1.466"
       style="fill:#353a85;fill-opacity:1;fill-rule:nonzero;stroke:none;stroke-width:0.1"
       id="path70" /><path
       d="m 388.535,475.597 c 0.176,-0.343 0.413,-0.672 0.729,-0.984 1.248,-1.231 2.977,-1.929 4.693,-2.175 2.262,-0.324 4.562,0.052 6.806,0.48 3.033,0.578 2.925,2.354 3.365,5.106 0.24,1.505 0.391,3.02 0.504,4.539 0.062,0.832 -0.26,3.812 0.27,4.396 0.36,0.395 1.826,0.262 2.468,0.597 1.018,0.532 1.869,1.511 2.48,2.462 0.986,1.534 1.529,3.303 2.061,5.047 0.924,3.034 1.849,6.069 2.773,9.103 0.945,3.101 1.895,6.227 2.198,9.454 0.457,4.864 -0.329,11.73 -4,15.287 -3.349,3.244 -8.235,4.38 -12.716,4.953 -5.933,0.758 -12.083,-0.328 -17.208,-3.478 -2.07,-1.271 -4.032,-2.921 -5.253,-5.188 -1.884,-3.496 -1.741,-7.86 -1.538,-11.941 0.187,-3.766 0.374,-7.532 0.561,-11.299 0.214,-4.331 0.754,-9.323 4,-11.672 1.723,-1.248 3.976,-1.514 5.451,-3.114 1.848,-2.003 1.728,-5.009 1.805,-7.549 0.045,-1.452 -0.064,-2.826 0.551,-4.024"
       style="fill:#eacdb0;fill-opacity:1;fill-rule:nonzero;stroke:none;stroke-width:0.1"
       id="path72" /><path
       d="m 407.317,524.285 c 0.204,-0.353 0.375,-0.719 0.507,-1.1 0.692,-1.997 0.224,-4.251 0.9,-6.254 1.07,-3.174 4.775,-5.082 5.333,-8.386 0.457,-2.701 -1.389,-5.27 -1.545,-8.005 -0.17,-2.989 1.744,-5.817 1.447,-8.767 -0.258,-2.563 -1.884,-6.164 -3.414,-8.217 0.475,0.636 4.764,0.409 5.877,1.089 1.705,1.041 1.899,1.698 2.406,3.474 0.504,1.764 0.114,3.503 0.899,5.31 0.962,2.217 2.941,3.844 3.634,6.208 0.946,3.226 -0.771,6.63 -0.637,9.989 0.203,5.085 4.597,9.875 3.003,14.707 -0.936,2.835 -3.688,4.647 -5.237,7.2 -1.175,1.938 -1.609,4.222 -2.424,6.337 -0.816,2.115 -2.217,4.232 -4.392,4.873 -1.207,0.357 -2.507,0.211 -3.745,0.441 -2.14,0.398 -3.918,1.875 -5.98,2.573 -2.95,0.998 -8.154,-1.985 -9.876,-4.486 -1.709,-2.481 -0.846,-4.591 0.901,-6.785 2.909,-3.654 9.941,-6.045 12.343,-10.201"
       style="fill:#292949;fill-opacity:1;fill-rule:nonzero;stroke:none;stroke-width:0.1"
       id="path74" /><path
       d="m 367.59,539.304 c -1.768,-1.297 -3.95,-2.234 -5.565,-3.75 -3.147,-2.954 -3.746,-7.68 -3.859,-11.996 -0.102,-3.842 -1.782,-7.257 -1.366,-11.262 0.28,-2.689 1.423,-5.409 3.612,-6.997 2.725,-1.978 7.005,-2.302 8.22,-5.443 1.321,-3.411 -2.213,-7.707 -0.068,-10.67 1.184,-1.635 3.503,-1.874 5.196,-2.973 1.889,-1.226 2.86,-3.414 4.013,-5.348 1.154,-1.934 2.887,-3.871 5.138,-3.919 0.091,3.424 0.192,6.137 -1.27,9.268 -0.852,1.824 -3.361,5.19 -1.434,7.165 1.215,1.642 4.084,2.176 4.158,4.217 0.034,0.959 -0.635,1.775 -1.162,2.576 -2.043,3.1 -2.251,7.23 -0.866,10.675 1.385,3.444 4.239,6.196 7.58,7.814 3.916,1.896 3.285,2.853 4.423,6.602 1.047,3.45 3.005,4.259 6.111,5.517 2.789,1.129 3.685,1.832 4.715,4.442 0.752,1.91 1.68,4.198 0.587,6.329 -0.868,1.694 -2.43,2.906 -3.944,4.06 -3.162,2.411 -6.715,4.945 -10.681,4.66 -2.202,-0.159 -4.274,-1.194 -6.479,-1.319 -1.471,-0.083 -2.933,0.242 -4.405,0.291 -2.51,0.084 -5.157,-0.679 -7.189,-2.173 -2.05,-1.507 -1.992,-3.085 -3.131,-5.224 -0.557,-1.047 -1.386,-1.847 -2.334,-2.542"
       style="fill:#292949;fill-opacity:1;fill-rule:nonzero;stroke:none;stroke-width:0.1"
       id="path76" /><path
       d="m 376.47,553.382 c 0.385,2.385 0.138,5.494 -2.14,6.299 -1.248,0.442 -2.647,-0.042 -3.945,0.222 -2.764,0.562 -3.706,3.911 -5.156,6.331 -0.217,0.362 -0.475,0.729 -0.861,0.901 -0.552,0.246 -1.184,0.028 -1.784,-0.045 -2.751,-0.336 -4.842,2.379 -7.434,3.364 -3.207,1.218 -7.242,-0.787 -8.209,-4.079 -0.397,-1.353 -0.327,-2.806 -0.7,-4.166 -1.51,-5.508 -9.576,-7.852 -9.781,-13.56 -0.137,-3.857 3.638,-7.552 2.17,-11.122 -0.938,-2.283 -3.875,-3.839 -3.539,-6.284 0.216,-1.573 1.891,-2.644 3.479,-2.622 1.587,0.022 3.046,0.893 4.242,1.938 1.898,1.658 3.329,3.785 5.137,5.54 1.809,1.756 4.22,3.179 6.721,2.867 2.422,-0.302 4.614,-2.188 7.021,-1.785 1.926,0.323 3.355,2.041 5.247,2.525 1.77,0.453 3.61,-0.242 5.433,-0.352 1.824,-0.11 4.064,0.839 4.112,2.665 0.012,0.442 -0.112,0.9 0.027,1.32 0.389,1.177 2.4,1.11 2.782,2.289 -0.952,1.468 -2.294,0.942 -2.977,2.859 -0.528,1.482 -0.087,3.396 0.155,4.895"
       style="fill:#292949;fill-opacity:1;fill-rule:nonzero;stroke:none;stroke-width:0.1"
       id="path78" /><path
       d="M 366.287,183.14 H 741.675 V 443.766 H 366.287 Z"
       style="fill:#8cabef;fill-opacity:1;fill-rule:nonzero;stroke:none;stroke-width:0.1"
       id="path80" /><path
       d="m 375.038,377.589 v 57.891 h 89.6 c -38.669,0 -71.616,-21.762 -84.171,-52.258 -1.725,-1.79 -3.535,-3.667 -5.429,-5.633"
       style="fill:#9cb4ee;fill-opacity:1;fill-rule:nonzero;stroke:none;stroke-width:0.1"
       id="path82" /><path
       d="M 741.675,183.14 H 530.372 c 191.783,0 211.303,133.421 211.303,133.421 V 183.14"
       style="fill:#7c93da;fill-opacity:1;fill-rule:nonzero;stroke:none;stroke-width:0.1"
       id="path84" /><path
       d="m 703.148,625.34 c -0.016,0.095 -0.028,0.191 -0.046,0.286 l 0.164,-0.146 -0.118,-0.14"
       style="fill:#c1c1c1;fill-opacity:1;fill-rule:nonzero;stroke:none;stroke-width:0.1"
       id="path86" /><path
       d="m 179.07,99.441 -0.601,-8.4461 16.29,-9.6469 9.046,7.8442 -7.844,9.0457 -16.29,9.6481 -0.601,-8.445"
       style="fill:#292949;fill-opacity:1;fill-rule:nonzero;stroke:none;stroke-width:0.1"
       id="path88" /><path
       d="m 170.683,356.262 -1.826,-25.649 26.288,-113.578 -16.765,-114.81 16.514,-4.543 48.794,137.38 1.646,41.597 -9.765,85.771 -64.886,-6.168"
       style="fill:#292949;fill-opacity:1;fill-rule:nonzero;stroke:none;stroke-width:0.1"
       id="path90" /><path
       d="M 276.719,341.124 287.155,233.555 278.714,92.991 263.112,91.659 242.324,218.92 210.04,345.199 l 66.679,-4.075"
       style="fill:#292949;fill-opacity:1;fill-rule:nonzero;stroke:none;stroke-width:0.1"
       id="path92" /><path
       d="m 263.043,93.5238 0.72,-8.4359 17.592,-6.9957 7.716,9.1558 -9.155,7.7161 -16.873,-1.4403"
       style="fill:#292949;fill-opacity:1;fill-rule:nonzero;stroke:none;stroke-width:0.1"
       id="path94" /><path
       d="m 155.68,342.837 c -1.233,-9.785 -2.297,-23.034 1.42,-23.908 0.697,-0.164 1.41,0.114 2.062,0.387 6.884,2.881 12.013,7.409 18.792,10.179 7.105,2.903 15.003,4.018 22.693,4.574 11.506,0.891 23.181,0.972 34.706,-0.021 9.061,-0.781 18.068,-2.495 26.996,-4.179 7.428,-1.402 14.169,-4.346 21.857,-4.61 7.88,-0.269 15.835,1.327 22.949,4.743 0.261,0.125 0.537,0.269 0.667,0.528 0.142,0.282 0.068,0.62 -0.009,0.927 -1.144,4.545 -1.842,9 -4.368,12.928 -2.82,4.386 -4.589,9.77 -6.452,14.623 -3.885,10.114 -7.437,20.66 -9.786,31.249 -3.711,14.447 -8.195,28.609 -11.73,43.084 -2.45,10.033 -4.579,20.207 -8.313,29.865 -2.925,7.563 -8.377,18.733 -15.929,22.713 -2.555,1.347 -5.487,1.749 -8.351,2.13 -8.688,1.154 -17.376,2.309 -26.064,3.464 -3.167,0.421 -6.464,0.831 -9.495,-0.177 -4.544,-1.511 -7.47,-5.814 -10.055,-9.843 -11.595,-18.068 -19.86,-37.987 -25.495,-58.829 -2.942,-10.883 -5.752,-21.801 -8.198,-32.799 -2.73,-12.273 -5.014,-24.649 -6.521,-37.126 -0.167,-1.386 -0.791,-5.253 -1.376,-9.902"
       style="fill:#d67086;fill-opacity:1;fill-rule:nonzero;stroke:none;stroke-width:0.1"
       id="path96" /><path
       d="m 224.737,441.967 c -0.184,-4.972 -1.401,-9.84 -2.612,-14.667 -7.376,-29.4 -14.752,-58.801 -22.128,-88.201 23.418,-2.225 46.836,-4.45 70.255,-6.675 0.313,11.27 0.627,22.54 0.94,33.809 0.202,7.225 0.401,14.476 -0.381,21.668 -1.264,11.6 -5.052,22.789 -8.816,33.873 -6.956,20.48 -13.912,40.961 -20.868,61.441 -0.371,1.096 -0.765,2.228 -1.573,3.072 -0.967,1.011 -2.383,1.464 -3.743,1.848 -6.568,1.857 -14.018,3.623 -20.841,3.335 -2.316,-5.944 2.779,-17.225 4.485,-23.155 2.483,-8.63 5.62,-17.265 5.282,-26.348"
       style="fill:#f7f7f7;fill-opacity:1;fill-rule:nonzero;stroke:none;stroke-width:0.1"
       id="path98" /><path
       d="m 233.475,484.086 c -4.829,0.714 -9.656,1.428 -14.484,2.142 0.14,3.889 0.591,7.766 1.347,11.584 -0.092,-0.464 -7.428,4.433 -8.018,5.433 -1.699,2.877 -1.464,7.388 -1.956,10.652 -1.049,6.954 -1.903,14.749 2.299,20.387 4.352,5.839 12.591,7.137 19.852,6.574 9.115,-0.706 18.991,-4.41 22.857,-12.696 3.491,-7.484 -2.915,-17.323 -5.21,-24.616 -1.131,-3.596 -2.711,-7.67 -6.285,-8.866 -1.898,-0.636 -4.087,-0.318 -5.826,-1.31 -3.065,-1.749 -2.877,-6.191 -4.576,-9.284"
       style="fill:#eacdb0;fill-opacity:1;fill-rule:nonzero;stroke:none;stroke-width:0.1"
       id="path100" /><path
       d="m 271.095,540.147 c 1.062,4.969 2.124,9.938 3.187,14.907 0.394,1.846 0.789,3.762 0.37,5.602 -0.697,3.06 -3.507,5.219 -6.436,6.347 -2.928,1.128 -6.098,1.488 -9.077,2.476 -3.18,1.054 -6.193,2.832 -9.537,3.031 -6.359,0.378 -11.814,-4.99 -18.175,-5.341 -8.807,-0.485 -16.35,4.31 -22.64,-5.342 -1.155,-1.774 -1.645,-3.903 -2.693,-5.742 -1.353,-2.376 -3.55,-4.133 -5.339,-6.201 -7.868,-9.091 -7.197,-24.198 0.244,-33.367 3.607,-4.446 4.875,-8.26 10.288,-10.128 -2.005,5.427 3.484,25.645 10.677,27.231 1.906,0.419 7.203,-2.408 9.213,-2.918 4.45,-1.129 8.768,-2.31 12.837,-4.512 6.038,-3.268 12.695,-5.831 19.471,-7.05 0.867,-0.156 1.84,-0.29 2.559,0.218 0.677,0.478 0.899,1.365 1.072,2.175 1.326,6.205 2.653,12.409 3.979,18.614"
       style="fill:#292949;fill-opacity:1;fill-rule:nonzero;stroke:none;stroke-width:0.1"
       id="path102" /><path
       d="m 524.797,647.626 c -3.429,22.924 12.246,44.289 35.071,47.964 -0.139,0.716 -0.271,1.434 -0.38,2.162 -4.187,27.999 15.116,54.091 43.114,58.278 15.234,2.279 29.895,-2.409 40.778,-11.656 7.129,11.08 18.803,19.157 32.856,21.259 25.013,3.74 48.374,-12.792 53.425,-37.26 1.047,0.238 2.105,0.452 3.184,0.613 23.084,3.453 44.595,-12.461 48.048,-35.545 2.776,-18.569 -6.984,-36.113 -22.922,-44.065 2.818,-4.568 4.78,-9.766 5.624,-15.41 3.341,-22.339 -12.059,-43.156 -34.398,-46.497 -1.713,-0.256 -3.416,-0.397 -5.104,-0.437 l 6.471,-43.266 c 0.253,-1.88 -2.043,-2.99 -2.867,-2.136 l -33.177,34.373 c -5.762,-5.202 -13.058,-8.83 -21.312,-10.065 -14.967,-2.238 -29.244,3.946 -38.045,14.984 -6.291,-5.384 -14.115,-9.132 -22.909,-10.448 -24.945,-3.73 -48.191,13.468 -51.922,38.413 -0.163,1.085 -0.271,2.165 -0.355,3.242 -17.735,2.806 -32.384,16.797 -35.18,35.497"
       style="fill:#5d66d3;fill-opacity:1;fill-rule:nonzero;stroke:none;stroke-width:0.1"
       id="path104" /><path
       d="m 605.133,655.109 c 6.172,0.923 7.617,-8.668 1.434,-9.593 -6.172,-0.923 -7.617,8.668 -1.434,9.593"
       style="fill:#ffffff;fill-opacity:1;fill-rule:nonzero;stroke:none;stroke-width:0.1"
       id="path106" /><path
       d="m 648.299,661.565 c 6.173,0.923 7.618,-8.668 1.435,-9.593 -6.172,-0.923 -7.617,8.668 -1.435,9.593"
       style="fill:#ffffff;fill-opacity:1;fill-rule:nonzero;stroke:none;stroke-width:0.1"
       id="path108" /><path
       d="m 702.258,669.635 c 6.173,0.923 7.617,-8.668 1.435,-9.593 -6.172,-0.923 -7.617,8.668 -1.435,9.593"
       style="fill:#ffffff;fill-opacity:1;fill-rule:nonzero;stroke:none;stroke-width:0.1"
       id="path110" /><path
       d="m 710.31,391.389 c -5.271,-4.208 -10.542,-8.416 -15.812,-12.624 2.682,-4.11 5.311,-8.255 7.854,-12.459 1.273,-2.106 -2.156,-3.766 -3.417,-1.68 -2.4,3.97 -4.882,7.883 -7.412,11.764 -5.133,-4.098 -10.267,-8.196 -15.399,-12.294 -1.915,-1.528 -4.404,1.361 -2.483,2.895 5.263,4.203 10.527,8.404 15.79,12.607 -3.091,4.649 -6.273,9.237 -9.554,13.761 -1.434,1.976 1.437,4.486 2.88,2.495 3.311,-4.565 6.521,-9.196 9.643,-13.886 5.142,4.105 10.285,8.211 15.427,12.316 1.914,1.528 4.404,-1.362 2.483,-2.895"
       style="fill:#ffffff;fill-opacity:1;fill-rule:nonzero;stroke:none;stroke-width:0.1"
       id="path112" /><path
       d="m 438.927,307.46 c 0.249,-0.105 0.525,-0.147 0.81,-0.128 0.388,-0.064 0.774,-0.121 1.162,-0.21 23.422,-5.327 15.381,-44.314 -7.896,-40.621 1.002,1.288 0.174,3.661 -1.732,3.083 -13.883,-4.213 -16.401,16.69 -13.004,25.353 3.33,8.49 11.79,13.613 20.66,12.523 z m 252.478,28.507 c -1.155,7.083 -3.008,13.899 -5.535,20.607 -0.558,1.482 -2.441,1.214 -3.274,0.244 -5.066,-5.9 -9.091,-12.311 -12.296,-19.398 -0.832,-1.84 1.658,-3.198 3.033,-2.091 1.798,1.449 3.435,2.997 4.951,4.632 -8.757,-28.074 -17.234,-62.587 -48.919,-69.078 -28.341,-5.806 -44.32,25.84 -56.614,45.962 -10.546,17.261 -21.74,35.959 -39.368,46.796 -18.832,11.575 -42.016,10.778 -61.149,0.324 -19.296,-10.545 -34.741,-29.899 -34.316,-52.56 -12.039,0.698 -22.42,-8.06 -24.61,-20.106 -1.845,-10.148 3.303,-26.58 15.104,-26.091 -0.131,-0.798 0.207,-1.617 1.227,-1.88 13.351,-3.462 26.063,5.057 28.747,18.565 2.448,12.32 -4.05,26.047 -16.675,28.95 -1.296,30.826 30.43,56.824 59.57,57.546 48.157,1.193 63.281,-53.504 88.742,-84.093 7.608,-9.14 17.298,-16.768 29.506,-17.807 11.391,-0.97 22.358,3.719 31.061,10.858 21.167,17.361 25.581,45.71 34.225,70.384 1.2,-4.096 2.164,-8.244 2.858,-12.505 0.396,-2.429 4.127,-1.685 3.732,0.741"
       style="fill:#ffffff;fill-opacity:1;fill-rule:nonzero;stroke:none;stroke-width:0.1"
       id="path114" /><path
       d="m 419.402,280.248 c -0.221,1.176 -0.311,2.387 -0.335,3.582 -0.276,13.872 6.872,23.106 21.141,19.757 7.346,-1.724 11.613,-10.977 11.579,-17.893 -0.024,-4.647 -1.427,-9.759 -5.351,-12.217 -6.385,-3.998 -21.475,-4.462 -25.744,3.089 -0.645,1.141 -1.046,2.39 -1.29,3.682"
       style="fill:#d67086;fill-opacity:1;fill-rule:nonzero;stroke:none;stroke-width:0.1"
       id="path116" /><path
       d="m 528.088,456.815 -100.164,141.972 -10.041,-7.084 100.164,-141.972 10.041,7.084"
       style="fill:#d67086;fill-opacity:1;fill-rule:nonzero;stroke:none;stroke-width:0.1"
       id="path118" /><path
       d="M 548.171,470.984 448.007,612.956 437.965,605.872 538.129,463.9 l 10.042,7.084"
       style="fill:#d67086;fill-opacity:1;fill-rule:nonzero;stroke:none;stroke-width:0.1"
       id="path120" /><path
       d="M 538.129,463.9 437.965,605.872 427.924,598.787 528.088,456.815 538.129,463.9"
       style="fill:#ffffff;fill-opacity:1;fill-rule:nonzero;stroke:none;stroke-width:0.1"
       id="path122" /><path
       d="m 415.972,594.411 1.911,-2.708 30.124,21.253 -1.911,2.708 -30.124,-21.253"
       style="fill:#babcbe;fill-opacity:1;fill-rule:nonzero;stroke:none;stroke-width:0.1"
       id="path124" /><path
       d="m 414.061,597.119 1.911,-2.708 30.124,21.253 -1.911,2.709 -30.124,-21.254"
       style="fill:#f7f7f7;fill-opacity:1;fill-rule:nonzero;stroke:none;stroke-width:0.1"
       id="path126" /><path
       d="m 412.15,599.828 1.911,-2.709 30.124,21.254 -1.911,2.708 -30.124,-21.253"
       style="fill:#babcbe;fill-opacity:1;fill-rule:nonzero;stroke:none;stroke-width:0.1"
       id="path128" /><path
       d="m 398.027,619.847 12.213,-17.311 30.124,21.253 -12.213,17.311 c -4.843,6.864 -14.333,8.502 -21.197,3.66 l -5.267,-3.716 c -6.864,-4.843 -8.503,-14.333 -3.66,-21.197"
       style="fill:#e8e8e8;fill-opacity:1;fill-rule:nonzero;stroke:none;stroke-width:0.1"
       id="path130" /><path
       d="m 410.24,602.536 1.91,-2.708 30.124,21.253 -1.91,2.708 -30.124,-21.253"
       style="fill:#f7f7f7;fill-opacity:1;fill-rule:nonzero;stroke:none;stroke-width:0.1"
       id="path132" /><path
       d="M 548.17,470.984 518.047,449.731 559.3,423.234 Z"
       style="fill:#eed5d5;fill-opacity:1;fill-rule:nonzero;stroke:none;stroke-width:0.1"
       id="path134" /><path
       d="m 556.699,434.395 -7.041,-4.968 9.642,-6.193 z"
       style="fill:#292949;fill-opacity:1;fill-rule:nonzero;stroke:none;stroke-width:0.1"
       id="path136" /><path
       d="m 332.747,229.65 c -15.405,0.573 -31.34,1.196 -45.72,1.769 l 0.128,2.136 -4.66,48.038 c 17.899,18.561 38.555,39.987 57.513,59.654 -0.54,-4.702 -1.122,-9.414 -1.766,-14.129 -1.312,-9.594 -2.324,-20.873 4.771,-27.463 0.767,0.597 1.547,1.16 2.337,1.69 -0.748,-3.887 -1.441,-7.786 -2.082,-11.692 -3.279,-19.975 -6.823,-40.015 -10.521,-60.003"
       style="fill:#ced0d6;fill-opacity:1;fill-rule:nonzero;stroke:none;stroke-width:0.1"
       id="path138" /><path
       d="m 366.287,228.462 c -10.244,0.338 -21.737,0.749 -33.54,1.188 3.698,19.988 7.242,40.028 10.521,60.003 0.641,3.906 1.334,7.805 2.082,11.692 6.4,4.296 13.529,6.472 20.937,7.572 v -80.455"
       style="fill:#545eb5;fill-opacity:1;fill-rule:nonzero;stroke:none;stroke-width:0.1"
       id="path140" /><path
       d="m 343.013,299.655 c -7.095,6.59 -6.083,17.869 -4.771,27.463 0.644,4.715 1.226,9.427 1.766,14.129 9.35,9.7 18.288,18.973 26.279,27.263 v -59.593 c -7.408,-1.1 -14.537,-3.276 -20.937,-7.572 -0.79,-0.53 -1.57,-1.093 -2.337,-1.69"
       style="fill:#373d7a;fill-opacity:1;fill-rule:nonzero;stroke:none;stroke-width:0.1"
       id="path142" /><path
       d="m 401.832,227.572 c -6.247,0 -19.335,0.354 -35.545,0.89 v 80.455 59.593 c 3.067,3.181 5.993,6.218 8.751,9.079 v -21.723 c 0,9.61 1.917,18.826 5.429,27.356 12.005,12.456 19.66,20.399 19.66,20.399 6.519,-6.431 7.752,-174.557 5.662,-175.883 -0.179,-0.114 -1.566,-0.166 -3.957,-0.166"
       style="fill:#7891ca;fill-opacity:1;fill-rule:nonzero;stroke:none;stroke-width:0.1"
       id="path144" /><path
       d="m 375.038,355.866 v 21.723 c 1.894,1.966 3.704,3.843 5.429,5.633 -3.512,-8.53 -5.429,-17.746 -5.429,-27.356"
       style="fill:#8498c9;fill-opacity:1;fill-rule:nonzero;stroke:none;stroke-width:0.1"
       id="path146" /><path
       d="m 238.622,233.4 c -1.651,0.069 -2.54,0.107 -2.54,0.107 0.422,0.434 1.092,1.125 1.989,2.051 l 0.551,-2.158"
       style="fill:#2e304d;fill-opacity:1;fill-rule:nonzero;stroke:none;stroke-width:0.1"
       id="path148" /><path
       d="m 287.027,231.419 c -22.848,0.912 -41.77,1.702 -48.405,1.981 l -0.551,2.158 c 6.239,6.446 23.438,24.273 44.424,46.035 l 4.66,-48.038 -0.128,-2.136"
       style="fill:#2e304d;fill-opacity:1;fill-rule:nonzero;stroke:none;stroke-width:0.1"
       id="path150" /><path
       d="M 399.936,233.507 H 227.894 c 3.965,26.061 6.807,56.842 6.484,91.374 -0.256,27.329 -0.137,50.941 -4.119,77.113 57.347,0 112.329,3.556 169.677,3.556 2.439,-24.028 4.066,-50.238 4.32,-78.354 0.306,-34.053 -1.454,-65.442 -4.32,-93.689"
       style="fill:#474ebb;fill-opacity:1;fill-rule:nonzero;stroke:none;stroke-width:0.1"
       id="path152" /><path
       d="m 289.343,299.952 c -8.203,-7.431 -17.866,-12.99 -28.287,-16.627 -1.581,25.359 3.288,50.729 0.661,76.074 9.803,4.194 20.837,7.409 30.711,2.237 10.463,-5.481 14.049,-20.505 13.963,-31.403 -0.097,-12.371 -8.296,-22.352 -17.048,-30.281 z m 19.558,35.196 c -1.224,11.292 -5.247,24.529 -16.468,29.553 -12.836,5.747 -26.595,-0.235 -38.356,-5.72 -1.618,-0.755 -0.21,-3.15 1.402,-2.398 1.162,0.542 2.353,1.093 3.566,1.641 2.401,-25.363 -2.466,-50.749 -0.672,-76.125 -0.363,-0.549 -0.269,-1.32 0.139,-1.792 0.047,-0.561 0.076,-1.121 0.13,-1.681 0.169,-1.764 2.948,-1.781 2.777,0 -0.058,0.607 -0.091,1.214 -0.141,1.822 22.714,7.782 50.52,27.965 47.623,54.7"
       style="fill:#ffffff;fill-opacity:1;fill-rule:nonzero;stroke:none;stroke-width:0.1"
       id="path154" /><path
       d="m 341.969,295.522 c -1.989,-9.115 -9.33,-17.638 -19.263,-17.627 -12.297,0.013 -14.877,13.035 -12.779,22.834 0.949,4.436 3.047,8.629 6.515,11.625 2.054,1.774 5.571,3.794 8.871,4.198 0.253,-0.557 0.825,-0.979 1.59,-0.817 0.829,0.177 1.623,0.269 2.389,0.298 0.308,-0.146 0.609,-0.314 0.893,-0.522 0.691,-0.507 1.367,-0.214 1.729,0.34 8.29,-1.572 11.824,-12.222 10.055,-20.329 z m -11.948,23.244 c -4.1,1.636 -9.652,-0.359 -13.075,-2.572 -5.139,-3.323 -8.436,-8.802 -9.697,-14.726 -2.353,-11.053 0.641,-25.249 13.964,-26.292 12.836,-1.005 22.548,10.557 23.907,22.48 1.138,9.989 -4.895,20.796 -15.099,21.11"
       style="fill:#ffffff;fill-opacity:1;fill-rule:nonzero;stroke:none;stroke-width:0.1"
       id="path156" /><path
       d="m 367.661,287.1 -0.162,0.218 c -1.598,1.654 -3.756,0.6 -4.648,-1.095 -0.836,-1.093 -1.521,-2.295 -1.33,-3.739 0.2,-1.511 1.372,-2.824 2.976,-2.799 1.699,0.027 2.961,1.403 3.41,2.944 0.648,0.636 1.022,1.551 0.827,2.659 -0.129,0.729 -0.527,1.371 -1.073,1.812"
       style="fill:#ffffff;fill-opacity:1;fill-rule:nonzero;stroke:none;stroke-width:0.1"
       id="path158" /><path
       d="m 367.962,340.059 c 0.199,-0.15 0.436,-0.229 0.684,-0.243 -0.296,-1.493 -0.612,-2.896 -0.754,-3.984 0.022,1.409 0.043,2.818 0.07,4.227 z m 0.22,9.285 c 0.119,-0.012 0.238,-0.024 0.356,-0.038 -0.087,-0.17 -0.156,-0.354 -0.176,-0.565 -0.049,-0.506 -0.134,-0.989 -0.229,-1.465 0.018,0.689 0.03,1.378 0.049,2.068 z m 5.841,0.454 c -1.295,2.3 -4.878,2.276 -7.195,2.398 -0.765,0.04 -1.368,-0.67 -1.389,-1.389 -0.474,-16.337 -0.597,-32.68 -0.369,-49.023 0.014,-1.006 0.902,-1.447 1.671,-1.32 0.165,-1.702 2.719,-1.702 2.766,0.07 0.322,12.12 1.325,24.208 3.15,36.197 0.405,2.657 0.853,5.307 1.324,7.953 0.288,1.616 0.915,3.563 0.042,5.114"
       style="fill:#ffffff;fill-opacity:1;fill-rule:nonzero;stroke:none;stroke-width:0.1"
       id="path160" /><path
       d="m 269.101,352.503 c -0.108,0.303 -0.221,0.615 -0.404,0.867 -1.707,2.343 -3.999,2.543 -6.275,4.323 -1.015,0.794 -0.717,4.095 -3.26,3.217 -0.939,-0.323 -3.13,-1.442 -5.125,-2.152 -2.909,-1.034 -7.222,-0.587 -10.58,0.4 -4.515,1.326 -9.262,2.834 -13.493,4.804 -8.889,4.138 -18.328,9.723 -26.278,15.484 8.928,13.552 9.425,32.193 1.232,46.203 -0.856,1.464 -1.845,2.925 -3.293,3.809 -1.224,0.747 -2.681,1.019 -4.112,1.112 -15.135,0.983 -15.419,-13.399 -16.133,-24.979 -0.445,-7.227 -0.439,-14.592 0.186,-21.81 0.876,-10.109 7.407,-15.915 16.045,-20.727 9.156,-5.099 18.521,-10.101 28.592,-13.15 4.894,-1.482 9.715,-1.937 14.712,-2.76 4.938,-0.814 4.299,-2.967 8.439,-4.789 2.31,-1.016 4.473,-2.488 6.941,-3.06 4.425,-1.024 7.983,2.033 11.355,4.398 0.84,0.589 1.409,0.985 1.847,1.84 0.711,1.392 0.441,2.884 0.225,4.375 -0.127,0.882 -0.326,1.759 -0.621,2.595"
       style="fill:#e5d1bd;fill-opacity:1;fill-rule:nonzero;stroke:none;stroke-width:0.1"
       id="path162" /><path
       d="m 173.708,399.993 c 0.229,-5.59 0.694,-11.065 1.348,-16.321 0.975,-7.836 2.272,-16.336 8.001,-21.77 2.208,-2.095 4.923,-3.563 7.611,-4.992 12.742,-6.773 25.653,-13.226 38.718,-19.351 4.762,5.896 8.624,12.518 11.409,19.567 0.782,1.978 1.485,4.174 0.814,6.192 -0.996,2.998 -4.466,4.257 -7.505,5.121 -4.95,1.409 -9.9,2.817 -14.85,4.226 -1.606,0.457 -3.364,1.027 -4.214,2.464 -0.555,0.939 -0.611,2.081 -0.635,3.171 -0.459,20.611 3.171,37.834 7.952,57.725 2.105,8.769 4.221,17.87 2.472,26.717 -3.736,18.889 -28.603,23.807 -38.083,6.287 -10.809,-19.976 -14.004,-45.533 -13.038,-69.036"
       style="fill:#d67086;fill-opacity:1;fill-rule:nonzero;stroke:none;stroke-width:0.1"
       id="path164" /><path
       d="m 712.733,388.786 c 0.872,0.987 1.148,1.356 2.564,1.994 1.417,0.637 3.102,0.856 4.788,1.967 1.224,0.806 0.915,3.748 3.747,2.631 1.046,-0.412 2.872,-1.724 4.87,-2.485 2.913,-1.112 7.064,-1.017 10.574,-0.246 13.789,3.031 27.648,5.804 41.766,7.225 0.805,0.08 1.604,0.136 2.281,0.612 1.212,0.854 1.373,2.245 1.682,3.61 1.434,6.328 3.052,12.528 5.672,18.502 2.338,5.329 5.101,10.405 9.601,14.174 4.499,3.769 10.438,5.658 15.969,3.89 4.142,-1.323 7.58,-4.211 8.44,-8.529 2.134,-10.708 -7.703,-18.718 -13.6,-26.225 -5.579,-7.102 -10.349,-13.126 -16.191,-19.638 -0.721,-0.804 -1.408,-1.555 -2.418,-2.012 -1.011,-0.458 -2.182,-0.484 -3.28,-0.47 -14.142,0.187 -27.923,0.731 -41.769,-2.14 -3.805,-0.789 -7.278,0.016 -10.859,-1.2 -2.286,-0.776 -3.48,-3.042 -5.581,-4.127 -2.102,-1.085 -4.585,-2.187 -6.939,-2.345 -4.642,-0.314 -7.496,3.097 -10.659,5.904 -2.526,2.243 -4.443,2.89 -7.731,2.015 -0.386,-0.103 -0.804,-0.352 -1.244,-0.254 -1.276,0.283 -1.819,1.778 -1.157,2.906 0.661,1.128 1.834,1.463 3.049,1.877 1.215,0.414 2.587,0.758 3.904,0.833 0.564,0.031 1.195,0.008 1.605,0.408 0.41,0.399 0.548,0.705 0.916,1.123"
       style="fill:#e5d1bd;fill-opacity:1;fill-rule:nonzero;stroke:none;stroke-width:0.1"
       id="path166" /><path
       d="m 810.926,409.809 c -7.966,3.014 -16.317,4.857 -24.08,8.506 2.816,6.76 10.96,34.263 12.361,37.556 5.351,12.568 6.386,17.983 13.76,24.619 15.746,14.172 34.444,4.774 33.675,-15.34 -0.833,-21.835 -12.533,-40.578 -25.206,-57.466 -0.276,-0.367 -0.651,-0.654 -1.13,-0.833 -0.48,-0.18 -1.216,0.002 -1.795,0.23 -2.477,0.977 -5.07,1.776 -7.585,2.728"
       style="fill:#aab4b5;fill-opacity:1;fill-rule:nonzero;stroke:none;stroke-width:0.1"
       id="path168" /><path
       d="m 815.925,109.405 c -2.787,-0.094 -5.465,0.531 -8.202,0.784 -1.412,27.135 1.152,55.573 2.264,82.837 6.971,-0.372 13.942,-0.744 20.912,-1.116 -4.854,-14.571 -8.319,-29.603 -10.346,-44.827 -0.321,-2.412 -4.231,-37.665 -4.628,-37.678"
       style="fill:#e5d1bd;fill-opacity:1;fill-rule:nonzero;stroke:none;stroke-width:0.1"
       id="path170" /><path
       d="m 806.879,115.452 c -1.72,0.307 -2.735,-0.459 -3.882,-1.507 -0.666,-0.609 -1.12,-1.47 -1.923,-1.906 -0.803,-0.436 -1.592,-0.521 -2.547,-0.617 -5.028,-0.505 -16.613,-0.295 -10.442,-8.706 5.605,-7.6379 20.491,-4.5969 29.09,-2.522 0.566,0.136 1.163,0.221 1.577,0.659 0.415,0.437 0.694,1.061 0.871,1.707 0.981,3.594 2.322,8.081 -2.097,9.587 -1.884,0.642 -3.621,-0.606 -5.616,0.086 -1.635,0.567 -3.31,2.913 -5.031,3.219"
       style="fill:#292949;fill-opacity:1;fill-rule:nonzero;stroke:none;stroke-width:0.1"
       id="path172" /><path
       d="m 794.357,176.66 c 14.216,0.276 28.431,0.551 42.647,0.827 11.499,54.743 21.626,109.774 30.368,165.025 0.678,4.283 1.338,8.738 0.103,12.896 -2.334,7.863 -10.756,12.35 -18.819,13.857 -12.531,2.341 -35.554,-0.919 -41.979,-13.947 -6.791,-13.769 -5.651,-38.359 -7.298,-53.573 -4.494,-41.518 -6.177,-83.34 -5.022,-125.085"
       style="fill:#292949;fill-opacity:1;fill-rule:nonzero;stroke:none;stroke-width:0.1"
       id="path174" /><path
       d="m 897.22,109.405 c 2.787,-0.094 5.465,0.531 8.202,0.784 1.413,27.135 -1.151,55.573 -2.264,82.837 -6.97,-0.372 -13.941,-0.744 -20.912,-1.116 4.854,-14.571 8.32,-29.603 10.346,-44.827 0.322,-2.412 4.231,-37.665 4.628,-37.678"
       style="fill:#e5d1bd;fill-opacity:1;fill-rule:nonzero;stroke:none;stroke-width:0.1"
       id="path176" /><path
       d="m 906.266,115.452 c 1.721,0.307 2.735,-0.459 3.883,-1.507 0.666,-0.609 1.119,-1.47 1.922,-1.906 0.804,-0.436 1.592,-0.521 2.547,-0.617 5.029,-0.505 16.614,-0.295 10.442,-8.706 -5.605,-7.6379 -20.491,-4.5969 -29.09,-2.522 -0.565,0.136 -1.162,0.221 -1.577,0.659 -0.414,0.437 -0.694,1.061 -0.87,1.707 -0.981,3.594 -2.323,8.081 2.096,9.587 1.885,0.642 3.621,-0.606 5.616,0.086 1.635,0.567 3.31,2.913 5.031,3.219"
       style="fill:#292949;fill-opacity:1;fill-rule:nonzero;stroke:none;stroke-width:0.1"
       id="path178" /><path
       d="m 918.788,176.66 c -14.216,0.276 -28.431,0.551 -42.646,0.827 -11.5,54.743 -21.627,109.774 -30.369,165.025 -0.677,4.283 -1.337,8.738 -0.103,12.896 2.335,7.863 10.757,12.35 18.82,13.857 12.531,2.341 35.553,-0.919 41.978,-13.947 6.792,-13.769 5.652,-38.359 7.299,-53.573 4.494,-41.518 6.177,-83.34 5.021,-125.085"
       style="fill:#292949;fill-opacity:1;fill-rule:nonzero;stroke:none;stroke-width:0.1"
       id="path180" /><path
       d="m 882.337,476.841 c 11.397,-10.846 19.933,-24.78 25.076,-39.213 9.105,-25.558 9.28,-52.848 9.364,-79.589 0.028,-8.9 0.055,-17.8 0.083,-26.7 0.029,-8.757 -0.746,-10.642 -10.263,-9.487 -17.635,2.139 -35.968,5.774 -51.946,13.611 -7.604,3.729 -14.71,8.439 -22.682,11.376 -11.596,4.271 -23.486,2.337 -34.958,5.116 4.981,15.056 8.545,27.88 11.101,43.392 2.632,15.973 5.025,33.396 8.883,49.154 2.314,9.456 6.618,18.29 10.997,26.984 2.943,5.845 6.059,11.826 11.057,16.051 15.054,12.724 31.934,0.111 43.288,-10.695"
       style="fill:#474ebb;fill-opacity:1;fill-rule:nonzero;stroke:none;stroke-width:0.1"
       id="path182" /><path
       d="m 841.215,514.336 c 2.152,-4.704 5.669,-8.625 8.541,-12.929 2.794,-4.186 3.799,-7.974 4.54,-12.829 0.535,-3.506 1.788,-6.247 6.012,-6.847 7.965,-1.132 5.687,5.45 7.497,10.237 2.068,5.473 6.478,9.797 9.56,14.682 8.906,14.115 6.364,42.013 -12.147,47.967 -20.239,6.509 -30.535,-26.004 -24.003,-40.281"
       style="fill:#e5d1bd;fill-opacity:1;fill-rule:nonzero;stroke:none;stroke-width:0.1"
       id="path184" /><path
       d="m 873.479,527.995 c 2.297,-0.093 4.825,-0.274 6.529,-1.818 1.704,-1.543 1.519,-4.909 -0.731,-5.273 -2.039,-0.329 -4.68,1.798 -5.925,0.245 -0.728,-0.908 -0.089,-2.236 0.463,-3.298 2.12,-4.074 2.755,-8.798 1.766,-13.138 0.838,-0.778 2.147,0.029 2.884,0.839 3.66,4.019 6.519,8.714 8.391,13.78 0.735,-1.226 1.813,-2.27 3.084,-2.986 -0.762,1.904 -0.279,3.988 0.191,5.931 1.73,7.14 2.907,15.505 -2.079,21.34 -2.668,3.121 -6.725,4.918 -10.805,5.672 -4.08,0.755 -8.238,0.572 -12.35,0.386 -1.759,-0.08 -3.926,-0.459 -4.349,-2.087 3.858,-1.547 7.85,-4.56 9.782,-8.214 0.593,-1.121 2.914,-11.369 3.149,-11.379"
       style="fill:#292949;fill-opacity:1;fill-rule:nonzero;stroke:none;stroke-width:0.1"
       id="path186" /><path
       d="m 865.325,545.15 c 0.141,-0.102 0.279,-0.205 0.414,-0.308 1.749,-1.331 3.389,-2.95 5.506,-3.54 3.05,-0.851 6.327,0.619 9.33,-0.42 3.358,-1.162 5.564,-5.176 8.015,-7.552 4.018,-3.896 9.001,-6.76 14.349,-8.388 2.732,-0.832 5.562,-1.342 8.413,-1.504 1.293,-0.073 3.022,-0.318 4.282,0.022 1.692,0.455 1.634,1.224 -0.169,1.801 -5.651,1.811 -7.422,9.748 -6.995,15.009 0.337,4.153 1.77,8.494 0.186,12.347 -1.21,2.944 -3.808,4.464 -6.32,6.148 -2.77,1.857 -5.773,1.357 -8.918,2.25 -3.281,0.932 -5.954,3.516 -9.301,4.175 -3.534,0.696 -7.067,-0.871 -10.604,-1.558 -2.922,-0.568 -5.96,-0.53 -8.867,0.109 -2.604,0.573 -5.146,1.628 -7.813,1.603 -3.933,-0.037 -7.55,-2.491 -9.846,-5.685 -3.246,-4.519 -5.345,-12.25 -4.201,-18.199 -0.178,0.923 2.929,4.268 3.568,4.987 1.349,1.519 2.978,2.942 5.037,3.187 4.661,0.556 10.187,-1.763 13.934,-4.484"
       style="fill:#292949;fill-opacity:1;fill-rule:nonzero;stroke:none;stroke-width:0.1"
       id="path188" /><path
       d="m 770,270.182 -1.077,-11.827 c -0.349,-3.841 2.149,-7.208 5.579,-7.521 l 27.748,-2.524 c 3.431,-0.312 6.496,2.549 6.846,6.39 l 1.075,11.826 -40.171,3.656"
       style="fill:#b1b1b2;fill-opacity:1;fill-rule:nonzero;stroke:none;stroke-width:0.1"
       id="path190" /><path
       d="m 871.818,421.025 c 3.785,41.606 -23.27,78.075 -60.429,81.457 -37.16,3.381 -70.353,-27.607 -74.138,-69.213 -1.346,-14.785 1.207,-28.919 6.72,-41.152 h -0.003 c 15.527,-36.829 17.176,-66.643 17.176,-66.643 l 33.858,-3.081 33.858,-3.081 c 0,0 7.004,29.027 28.923,62.449 h -0.003 c 7.631,11.038 12.692,24.479 14.038,39.264"
       style="fill:#d67086;fill-opacity:1;fill-rule:nonzero;stroke:none;stroke-width:0.1"
       id="path192" /><path
       d="m 760.365,325.545 -4.571,-50.239 c -0.191,-2.099 1.138,-3.935 2.968,-4.102 l 62.647,-5.7 c 1.83,-0.167 3.468,1.4 3.659,3.499 l 4.571,50.238 -69.274,6.304"
       style="fill:#dddddd;fill-opacity:1;fill-rule:nonzero;stroke:none;stroke-width:0.1"
       id="path194" /><path
       d="m 800.628,321.881 -5.626,0.512 -33.858,3.081 c 0,0 -0.002,0.043 -0.006,0.113 0.004,-0.075 0.006,-0.113 0.006,-0.113 l 33.858,-3.081 5.626,-0.512 v 0"
       style="fill:#d8d6e7;fill-opacity:1;fill-rule:nonzero;stroke:none;stroke-width:0.1"
       id="path196" /><path
       d="m 828.86,319.312 -28.232,2.569 v 0 l 28.232,-2.569 v 0"
       style="fill:#2d2b55;fill-opacity:1;fill-rule:nonzero;stroke:none;stroke-width:0.1"
       id="path198" /><path
       d="m 828.86,319.312 -28.232,2.569 -5.626,0.512 -33.858,3.081 c 0,0 -0.002,0.038 -0.006,0.113 -0.002,0.027 -0.004,0.058 -0.006,0.093 51.831,18.933 90.28,73.704 110.774,109.559 0.358,-4.642 0.35,-9.391 -0.088,-14.214 v 0 c -1.346,-14.785 -6.407,-28.226 -14.038,-39.264 v 0 0 h 0.003 c -0.45,-0.686 -0.893,-1.369 -1.33,-2.051 -20.862,-32.531 -27.586,-60.366 -27.593,-60.398"
       style="fill:#b76486;fill-opacity:1;fill-rule:nonzero;stroke:none;stroke-width:0.1"
       id="path200" /><path
       d="m 752.504,392.583 c -6.624,11.793 -9.902,26.108 -8.529,41.2 3.139,34.505 29.446,60.644 59.882,60.644 1.603,0 3.219,-0.072 4.843,-0.22 21.78,-1.982 39.585,-16.985 47.934,-37.624 -9.32,16.591 -25.265,28.189 -44.227,29.914 -1.626,0.148 -3.238,0.22 -4.843,0.22 -30.433,0 -56.743,-26.141 -59.882,-60.644 -1.086,-11.937 0.736,-23.388 4.822,-33.49"
       style="fill:#ebb8c3;fill-opacity:1;fill-rule:nonzero;stroke:none;stroke-width:0.1"
       id="path202" /><path
       d="m 781.919,323.584 0.623,97.172 10.396,-11.607 11.508,16.675 8.495,-17.93 12.086,9.088 -16.941,-95.779 3.475,-0.317 18.484,104.511 -15.799,-11.882 -9.216,19.453 -12.386,-17.944 -13.519,15.098 -0.681,-106.222 3.475,-0.316"
       style="fill:#f6f7f7;fill-opacity:1;fill-rule:nonzero;stroke:none;stroke-width:0.1"
       id="path204" /><path
       d="m 778.506,333.59 -0.062,-9.69 3.475,-0.316 0.077,11.97 c -1.156,-0.671 -2.318,-1.327 -3.49,-1.964"
       style="fill:#edeced;fill-opacity:1;fill-rule:nonzero;stroke:none;stroke-width:0.1"
       id="path206" /><path
       d="m 815.062,360.639 -6.976,-39.436 3.475,-0.317 7.761,43.879 c -1.402,-1.392 -2.822,-2.768 -4.26,-4.126"
       style="fill:#edeced;fill-opacity:1;fill-rule:nonzero;stroke:none;stroke-width:0.1"
       id="path208" /><path
       d="m 827.661,297.49 -69.275,6.303 0.844,9.277 69.275,-6.303 -0.844,-9.277"
       style="fill:#c4c4c4;fill-opacity:1;fill-rule:nonzero;stroke:none;stroke-width:0.1"
       id="path210" /><path
       d="m 825.858,277.677 -69.275,6.303 0.844,9.277 69.275,-6.303 -0.844,-9.277"
       style="fill:#c4c4c4;fill-opacity:1;fill-rule:nonzero;stroke:none;stroke-width:0.1"
       id="path212" /><path
       d="m 795.407,289.802 31.295,-2.848 0.959,10.536 -19.306,1.756 c -4.402,-3.632 -8.734,-6.755 -12.948,-9.444"
       style="fill:#c2c2c4;fill-opacity:1;fill-rule:nonzero;stroke:none;stroke-width:0.1"
       id="path214" /><path
       d="m 828.505,306.767 1.135,12.474 -1.09,0.1 c -1.592,-2.316 -5.425,-6.495 -10.768,-11.598 l 10.723,-0.976"
       style="fill:#c2c2c4;fill-opacity:1;fill-rule:nonzero;stroke:none;stroke-width:0.1"
       id="path216" /><path
       d="m 758.762,271.204 62.647,-5.7 c 1.83,-0.167 3.468,1.4 3.659,3.499 l 0.79,8.674 -45.233,4.115 c -9.642,-4.324 -18.161,-6.443 -24.801,-7.445 0.22,-1.671 1.395,-3.002 2.938,-3.143"
       style="fill:#c2c2c4;fill-opacity:1;fill-rule:nonzero;stroke:none;stroke-width:0.1"
       id="path218" /><path
       d="m 808.355,299.246 19.306,-1.756 0.844,9.277 -10.723,0.976 c -3.166,-3.099 -6.314,-5.929 -9.427,-8.497"
       style="fill:#b1b1b2;fill-opacity:1;fill-rule:nonzero;stroke:none;stroke-width:0.1"
       id="path220" /><path
       d="m 780.625,281.792 45.233,-4.115 0.844,9.277 -31.295,2.848 c -5.134,-3.276 -10.09,-5.905 -14.782,-8.01"
       style="fill:#b1b1b2;fill-opacity:1;fill-rule:nonzero;stroke:none;stroke-width:0.1"
       id="path222" /><path
       d="m 809.518,259.343 c -8.58,-7.712 -23.778,-8.898 -28.781,-9.076 l 21.513,-1.957 c 3.431,-0.312 6.496,2.549 6.846,6.39 l 0.422,4.643"
       style="fill:#9e9e9e;fill-opacity:1;fill-rule:nonzero;stroke:none;stroke-width:0.1"
       id="path224" /><path
       d="m 826.104,366.924 c 0.094,0.263 0.194,0.534 0.354,0.752 1.488,2.03 3.48,2.197 5.461,3.737 0.884,0.687 0.634,3.554 2.841,2.785 0.815,-0.283 2.714,-1.261 4.445,-1.883 2.524,-0.907 6.271,-0.531 9.19,0.317 3.924,1.139 8.051,2.436 11.732,4.134 3.852,1.778 7.609,3.759 11.277,5.889 3.056,1.775 7.907,3.81 10.218,6.51 3.908,4.568 -0.618,15.702 -1.132,21.406 -0.536,5.945 -0.016,23.458 8.008,23.954 13.148,0.811 13.354,-11.681 13.941,-21.741 0.367,-6.277 0.341,-12.674 -0.223,-18.941 -0.789,-8.777 -6.477,-13.801 -13.993,-17.956 -7.966,-4.403 -16.114,-8.721 -24.869,-11.341 -4.254,-1.273 -8.443,-1.654 -12.785,-2.356 -4.291,-0.693 -3.743,-2.564 -7.343,-4.134 -2.009,-0.877 -3.892,-2.149 -6.037,-2.638 -3.846,-0.877 -6.928,1.788 -9.85,3.851 -0.728,0.514 -1.22,0.859 -1.598,1.603 -0.614,1.211 -0.375,2.506 -0.184,3.8 0.113,0.766 0.289,1.527 0.547,2.252"
       style="fill:#e5d1bd;fill-opacity:1;fill-rule:nonzero;stroke:none;stroke-width:0.1"
       id="path226" /><path
       d="m 902.195,409.386 c -7.433,-1.441 -14.866,-2.882 -22.299,-4.322 0.478,0.092 -8.601,33.327 -9.073,35.324 -1.804,7.622 -3.616,15.533 -2.072,23.211 3.298,16.395 11.201,20.43 21.159,3.203 9.399,-16.26 24.131,-35.727 21.214,-54.234 -0.064,-0.402 -0.139,-0.823 -0.394,-1.141 -0.349,-0.436 -0.945,-0.57 -1.494,-0.676 -2.347,-0.455 -4.694,-0.91 -7.041,-1.365"
       style="fill:#474ebb;fill-opacity:1;fill-rule:nonzero;stroke:none;stroke-width:0.1"
       id="path228" /></g></svg>